<svg width="307" height="530" viewBox="0 0 307 530" fill="none" xmlns="http://www.w3.org/2000/svg">
<g clip-path="url(#clip0_2012_3)">
<g clip-path="url(#clip1_2012_3)">
<path d="M130.668 1.03417L279.185 47.993C289.741 51.3351 295.595 62.5988 292.263 73.1582L279.989 112.005C276.692 122.454 265.63 128.296 255.169 125.189L254.832 125.085L106.312 78.1211C95.7556 74.779 89.9022 63.5153 93.2341 52.9559L105.508 14.1092C108.805 3.66052 119.867 -2.18237 130.328 0.925551L130.665 1.02892C130.666 1.02934 130.668 1.02976 130.668 1.03417Z" fill="#F6CF98"/>
<path d="M147.166 41.1758L145.993 44.7863L152.769 46.988L151.636 50.475L144.86 48.2733L142.65 55.074L138.471 53.7161L144.16 36.2072L155.684 39.9517L154.511 43.5622L147.166 41.1758Z" fill="#A54E34"/>
<path d="M153.333 58.5453L159.022 41.0364L163.276 42.4185L157.587 59.9273L153.333 58.5453Z" fill="#A54E34"/>
<path d="M172.376 64.7325L170.551 57.3045L164.858 62.2897L159.813 60.6505L168.951 53.3942L165.996 43.3024L171.091 44.9576L172.587 51.4589L177.57 47.0629L182.491 48.6619L174.268 55.1218L177.594 66.4279L172.376 64.7325Z" fill="#A54E34"/>
<path d="M204.574 75.1944L200.395 73.8364L200.781 60.8658L200.707 60.8417L193.396 71.5624L189.192 70.1964L189.91 51.0725L194.461 52.551L193.446 65.0988L193.52 65.1229L200.421 54.4875L204.822 55.9178L204.179 68.5861L204.253 68.6102L210.857 57.8784L215.259 59.3086L204.574 75.1944Z" fill="#A54E34"/>
<path d="M211.993 77.605L217.682 60.0961L221.936 61.4782L216.247 78.987L211.993 77.605Z" fill="#A54E34"/>
<path d="M229.171 67.8208L227.998 71.4313L234.774 73.633L233.641 77.1199L226.865 74.9183L224.655 81.719L220.475 80.3611L226.164 62.8522L237.689 66.5966L236.515 70.2072L229.171 67.8208Z" fill="#A54E34"/>
<path d="M235.338 85.1903L241.027 67.6814L245.281 69.0635L239.592 86.5723L235.338 85.1903Z" fill="#A54E34"/>
</g>
</g>
<g clip-path="url(#clip2_2012_3)">
<g clip-path="url(#clip3_2012_3)">
<path d="M51.9259 272.552L231.456 301.888C242.356 303.671 249.749 313.951 247.971 324.851L238.518 382.746C236.759 393.533 226.675 400.886 215.902 399.315L215.558 399.262C215.558 399.262 215.557 399.261 215.556 399.259L36.0266 369.923C25.1267 368.14 17.7338 357.86 19.5114 346.959L28.9647 289.065C30.7237 278.278 40.8072 270.925 51.58 272.496L51.924 272.549C51.9248 272.549 51.9255 272.549 51.9259 272.552Z" fill="#DF96AE"/>
<path d="M92.9221 324.793L95.0573 311.976L94.9804 311.963L88.2344 324.051L85.1604 323.564L82.6078 310.004L82.5309 309.992L80.6007 322.842L76.4765 322.188L79.349 304.052L85.5738 305.038L87.856 317.321L87.9585 317.337L93.7454 306.332L100.073 307.334L97.2001 325.471L92.9221 324.793Z" fill="#844461"/>
<path d="M113.876 328.112L113.031 324.328L106.012 323.216L104.116 326.566L99.3519 325.812L109.832 308.88L114.085 309.554L118.743 328.883L113.876 328.112ZM111.115 314.046L107.824 319.906L112.383 320.628L111.115 314.046Z" fill="#844461"/>
<path d="M132.423 331.049L127 318.033L126.924 318.021L125.147 329.897L120.895 329.224L123.768 311.087L128.763 311.878L134.163 324.865L134.24 324.878L136.012 313.027L140.265 313.7L137.392 331.836L132.423 331.049Z" fill="#844461"/>
<path d="M154.068 334.478L153.223 330.694L146.205 329.582L144.308 332.932L139.544 332.177L150.024 315.246L154.277 315.919L158.935 335.249L154.068 334.478ZM151.307 320.412L148.016 326.272L152.575 326.994L151.307 320.412Z" fill="#844461"/>
<path d="M176.913 336.967C175.952 337.287 174.855 337.499 173.622 337.601C172.389 337.703 171.073 337.644 169.672 337.422C168.221 337.192 166.921 336.75 165.773 336.095C164.625 335.441 163.678 334.626 162.931 333.649C162.184 332.673 161.655 331.561 161.345 330.313C161.035 329.065 160.994 327.723 161.221 326.289C161.451 324.837 161.911 323.562 162.602 322.464C163.292 321.365 164.147 320.472 165.166 319.784C166.185 319.097 167.328 318.626 168.593 318.371C169.859 318.116 171.184 318.098 172.567 318.317C174.002 318.545 175.299 318.973 176.46 319.604C177.62 320.234 178.527 320.977 179.179 321.833L175.913 324.546C175.565 323.983 175.065 323.488 174.415 323.061C173.765 322.634 172.996 322.351 172.108 322.21C171.34 322.088 170.609 322.117 169.915 322.296C169.221 322.475 168.596 322.778 168.038 323.206C167.48 323.634 167.014 324.173 166.639 324.823C166.265 325.473 166.013 326.207 165.883 327.027C165.751 327.864 165.749 328.651 165.877 329.389C166.005 330.127 166.264 330.786 166.654 331.364C167.044 331.942 167.562 332.427 168.209 332.818C168.856 333.209 169.624 333.475 170.512 333.616C171.024 333.697 171.517 333.736 171.99 333.732C172.463 333.728 172.91 333.672 173.33 333.563L173.853 330.259L170.395 329.711L170.955 326.176L178.435 327.361L176.913 336.967Z" fill="#844461"/>
<path d="M180.965 338.738L183.838 320.602L196.031 322.533L195.443 326.247L187.476 324.985L186.937 328.392L194.468 329.585L193.912 333.095L186.381 331.902L185.784 335.667L194.212 337.002L193.62 340.742L180.965 338.738Z" fill="#844461"/>
<path d="M69.7685 339.507L68.5513 347.192L64.1709 346.498L65.3881 338.813L60.2295 327.283L65.5321 328.123L68.3371 335.447L73.2682 329.348L78.3914 330.159L69.7685 339.507Z" fill="#844461"/>
<path d="M97.0505 342.331C96.8233 343.766 96.3681 345.037 95.6849 346.146C95.0016 347.254 94.1533 348.162 93.1399 348.868C92.1265 349.574 90.9771 350.061 89.6916 350.33C88.406 350.599 87.0545 350.622 85.6371 350.397C84.2197 350.173 82.9455 349.734 81.8145 349.083C80.6836 348.431 79.7453 347.613 78.9997 346.628C78.2541 345.643 77.7277 344.518 77.4204 343.253C77.1132 341.988 77.0731 340.638 77.3003 339.203C77.5303 337.752 77.9855 336.48 78.666 335.389C79.3465 334.298 80.1915 333.412 81.2008 332.731C82.2101 332.051 83.3519 331.584 84.6262 331.331C85.9005 331.077 87.2464 331.063 88.6638 331.287C90.0812 331.512 91.361 331.942 92.5032 332.578C93.6454 333.214 94.5913 334.012 95.341 334.971C96.0906 335.93 96.6204 337.033 96.9304 338.282C97.2404 339.53 97.2804 340.88 97.0505 342.331ZM92.3627 341.589C92.4871 340.803 92.4754 340.049 92.3274 339.325C92.1794 338.601 91.9177 337.96 91.5422 337.402C91.1668 336.844 90.6812 336.373 90.0854 335.99C89.4896 335.606 88.8075 335.354 88.039 335.232C87.2705 335.111 86.548 335.141 85.8715 335.322C85.195 335.504 84.5877 335.802 84.0495 336.215C83.5113 336.629 83.0643 337.158 82.7085 337.802C82.3527 338.446 82.1125 339.16 81.9881 339.946C81.8583 340.766 81.8667 341.541 82.0133 342.274C82.1599 343.006 82.4203 343.655 82.7944 344.222C83.1685 344.789 83.6492 345.264 84.2364 345.646C84.8237 346.027 85.5015 346.279 86.27 346.401C87.0385 346.523 87.761 346.493 88.4375 346.311C89.114 346.129 89.722 345.827 90.2616 345.405C90.8011 344.983 91.2537 344.446 91.6194 343.795C91.9851 343.144 92.2329 342.409 92.3627 341.589Z" fill="#844461"/>
<path d="M115.59 347.631C115.417 348.724 115.076 349.69 114.567 350.528C114.058 351.367 113.411 352.052 112.626 352.584C111.842 353.116 110.939 353.485 109.917 353.691C108.895 353.897 107.795 353.907 106.617 353.72C105.421 353.531 104.374 353.181 103.474 352.671C102.575 352.161 101.843 351.533 101.278 350.787C100.714 350.041 100.323 349.191 100.106 348.238C99.8897 347.285 99.868 346.261 100.041 345.168L101.83 333.872L106.185 334.561L104.453 345.5C104.374 345.995 104.364 346.475 104.422 346.939C104.479 347.403 104.613 347.831 104.822 348.223C105.031 348.615 105.338 348.948 105.741 349.222C106.144 349.496 106.652 349.682 107.267 349.779C107.882 349.877 108.423 349.857 108.891 349.721C109.359 349.585 109.758 349.364 110.086 349.057C110.415 348.75 110.674 348.384 110.864 347.959C111.054 347.534 111.188 347.074 111.267 346.579L112.999 335.641L117.379 336.334L115.59 347.631Z" fill="#844461"/>
<path d="M128.391 356.67L125.612 348.851L124.126 348.616L122.986 355.814L118.682 355.132L121.555 336.996L128.471 338.091C129.342 338.229 130.178 338.453 130.977 338.764C131.777 339.074 132.472 339.495 133.062 340.026C133.652 340.557 134.088 341.204 134.37 341.966C134.652 342.729 134.71 343.631 134.545 344.673C134.35 345.902 133.854 346.883 133.055 347.614C132.256 348.345 131.24 348.797 130.004 348.969L133.514 357.481L128.391 356.67ZM130.204 344.064C130.271 343.637 130.236 343.277 130.099 342.984C129.962 342.691 129.764 342.449 129.505 342.259C129.246 342.07 128.946 341.921 128.604 341.815C128.262 341.708 127.928 341.629 127.604 341.578L125.273 341.208L124.603 345.435L126.678 345.764C127.037 345.82 127.409 345.849 127.794 345.848C128.179 345.848 128.538 345.796 128.869 345.691C129.201 345.586 129.488 345.403 129.731 345.144C129.973 344.885 130.131 344.525 130.204 344.064Z" fill="#844461"/>
<path d="M159.797 361.644L161.932 348.826L161.855 348.814L155.109 360.901L152.035 360.415L149.482 346.855L149.405 346.842L147.475 359.692L143.351 359.039L146.223 340.903L152.448 341.889L154.73 354.172L154.833 354.188L160.62 343.183L166.947 344.185L164.074 362.321L159.797 361.644Z" fill="#844461"/>
<path d="M180.751 364.963L179.906 361.179L172.887 360.067L170.991 363.417L166.226 362.662L176.707 345.731L180.959 346.404L185.618 365.734L180.751 364.963ZM177.989 350.897L174.698 356.757L179.257 357.479L177.989 350.897Z" fill="#844461"/>
<path d="M203.665 366.019C202.716 366.814 201.61 367.387 200.347 367.738C199.083 368.089 197.683 368.143 196.146 367.9C194.745 367.678 193.488 367.243 192.374 366.594C191.261 365.945 190.335 365.128 189.598 364.145C188.861 363.162 188.338 362.042 188.029 360.785C187.721 359.528 187.679 358.191 187.903 356.774C188.133 355.322 188.593 354.047 189.284 352.948C189.974 351.85 190.829 350.957 191.848 350.269C192.867 349.582 194.01 349.11 195.276 348.856C196.541 348.601 197.866 348.583 199.249 348.802C200.53 349.005 201.754 349.431 202.92 350.08C204.087 350.728 204.985 351.549 205.616 352.542L202.174 355.043C201.853 354.414 201.381 353.91 200.758 353.532C200.136 353.153 199.474 352.908 198.774 352.797C198.006 352.676 197.279 352.705 196.594 352.885C195.909 353.066 195.296 353.367 194.757 353.789C194.217 354.211 193.766 354.739 193.403 355.373C193.04 356.007 192.795 356.726 192.668 357.528C192.538 358.348 192.547 359.12 192.695 359.843C192.843 360.567 193.105 361.208 193.48 361.766C193.856 362.325 194.338 362.791 194.926 363.164C195.515 363.537 196.185 363.784 196.936 363.903C197.807 364.041 198.594 363.99 199.297 363.751C200 363.513 200.592 363.151 201.071 362.667L203.665 366.019Z" fill="#844461"/>
</g>
</g>
<g clip-path="url(#clip4_2012_3)">
<g clip-path="url(#clip5_2012_3)">
<path d="M13.3295 95.1057L107.931 61.6034C118.23 57.951 129.528 63.2482 133.338 73.4446L133.458 73.7752C133.459 73.7767 133.459 73.7781 133.456 73.7811L166.949 168.427C170.63 178.84 165.178 190.267 154.769 193.958L60.1679 227.46C49.8681 231.113 38.5706 225.815 34.7605 215.619L34.6402 215.288C34.6397 215.287 34.6392 215.286 34.643 215.283L1.14905 120.636C-2.53102 110.224 2.92065 98.7968 13.3295 95.1057Z" fill="#99D7F1"/>
<path d="M55.3959 123.136C55.7625 124.144 55.8847 125.061 55.7623 125.887C55.64 126.714 55.3388 127.454 54.8589 128.107C54.379 128.76 53.7602 129.335 53.0026 129.831C52.2449 130.328 51.4192 130.739 50.5256 131.064L48.454 131.818L50.8225 138.325L46.6549 139.842L40.3746 122.587L46.7112 120.281C47.6536 119.938 48.569 119.71 49.4575 119.598C50.3461 119.487 51.1704 119.527 51.9304 119.719C52.6905 119.912 53.3679 120.282 53.9627 120.829C54.5574 121.376 55.0352 122.145 55.3959 123.136ZM51.2372 124.678C51.0894 124.271 50.8869 123.968 50.6298 123.767C50.3727 123.566 50.0795 123.443 49.75 123.397C49.4206 123.352 49.0724 123.368 48.7053 123.446C48.3382 123.525 47.9678 123.632 47.5941 123.768L45.7663 124.433L47.2477 128.503L49.0024 127.865C49.3924 127.723 49.7542 127.554 50.088 127.359C50.4218 127.164 50.7013 126.933 50.9265 126.668C51.1517 126.402 51.2967 126.105 51.3616 125.778C51.4266 125.451 51.3851 125.084 51.2372 124.678Z" fill="#384C75"/>
<path d="M62.862 133.943L56.5817 116.688L60.7736 115.162L65.7322 128.786L72.41 126.356L73.7317 129.987L62.862 133.943Z" fill="#384C75"/>
<path d="M87.989 124.797L85.4155 121.898L78.7377 124.328L78.7034 128.177L74.1703 129.827L75.1283 109.938L79.174 108.465L92.6195 123.112L87.989 124.797ZM78.7546 113.834L78.7167 120.555L83.0548 118.976L78.7546 113.834Z" fill="#384C75"/>
<path d="M105.634 118.375L94.5809 109.619L94.5078 109.646L98.7123 120.894L94.6667 122.367L88.3864 105.112L93.1388 103.382L104.158 112.123L104.232 112.096L100.036 100.872L104.082 99.3994L110.362 116.654L105.634 118.375Z" fill="#384C75"/>
<path d="M58.7623 154.755L61.4235 162.067L57.2559 163.584L54.5948 156.272L44.4928 148.688L49.5377 146.852L55.5419 151.898L56.8979 144.173L61.7722 142.399L58.7623 154.755Z" fill="#384C75"/>
<path d="M83.9929 143.999C84.4897 145.364 84.7079 146.696 84.6478 147.997C84.5876 149.298 84.2855 150.503 83.7414 151.611C83.1974 152.72 82.4285 153.704 81.4345 154.562C80.4406 155.421 79.2694 156.096 77.9208 156.587C76.5723 157.077 75.2454 157.312 73.9403 157.29C72.6352 157.268 71.4179 157.008 70.2884 156.508C69.1589 156.008 68.1531 155.279 67.2709 154.322C66.3887 153.364 65.6992 152.203 65.2025 150.838C64.6998 149.457 64.4816 148.124 64.5477 146.84C64.6137 145.555 64.9232 144.371 65.4761 143.286C66.029 142.202 66.8013 141.24 67.793 140.401C68.7848 139.561 69.9549 138.896 71.3034 138.405C72.652 137.915 73.9799 137.67 75.2873 137.673C76.5946 137.676 77.8086 137.915 78.9292 138.39C80.0498 138.865 81.0483 139.574 81.9245 140.515C82.8008 141.457 83.4903 142.618 83.9929 143.999ZM79.5329 145.622C79.2609 144.875 78.8848 144.22 78.4045 143.659C77.9242 143.098 77.3846 142.664 76.7855 142.358C76.1864 142.052 75.5334 141.875 74.8265 141.829C74.1196 141.783 73.4006 141.892 72.6695 142.159C71.9383 142.425 71.321 142.801 70.8174 143.288C70.3138 143.775 69.9269 144.33 69.6568 144.953C69.3866 145.575 69.252 146.254 69.253 146.99C69.254 147.726 69.3904 148.467 69.6625 149.215C69.9463 149.995 70.3299 150.669 70.8131 151.238C71.2963 151.808 71.8389 152.25 72.441 152.564C73.0431 152.879 73.6935 153.061 74.3922 153.11C75.0909 153.159 75.8059 153.051 76.537 152.785C77.2682 152.518 77.8855 152.142 78.3891 151.655C78.8927 151.168 79.2781 150.609 79.5453 149.978C79.8125 149.348 79.9482 148.659 79.9524 147.912C79.9566 147.165 79.8168 146.402 79.5329 145.622Z" fill="#384C75"/>
<path d="M102.777 139.646C103.156 140.686 103.326 141.696 103.287 142.676C103.248 143.656 103.014 144.569 102.586 145.415C102.158 146.261 101.547 147.021 100.753 147.697C99.9596 148.372 99.0022 148.914 97.8811 149.322C96.7437 149.736 95.658 149.937 94.624 149.927C93.5899 149.917 92.6452 149.723 91.7898 149.344C90.9343 148.966 90.1808 148.412 89.5291 147.683C88.8775 146.954 88.3624 146.07 87.9839 145.03L84.072 134.282L88.2152 132.774L92.0029 143.181C92.1744 143.652 92.3979 144.077 92.6735 144.455C92.9492 144.833 93.2735 145.143 93.6466 145.384C94.0196 145.626 94.4488 145.768 94.9341 145.813C95.4194 145.857 95.9545 145.772 96.5394 145.559C97.1243 145.347 97.5884 145.067 97.9318 144.721C98.2751 144.376 98.5162 143.989 98.6549 143.561C98.7936 143.134 98.843 142.688 98.803 142.224C98.763 141.76 98.6572 141.293 98.4857 140.821L94.698 130.415L98.8655 128.898L102.777 139.646Z" fill="#384C75"/>
<path d="M118.355 141.345L112.134 135.854L110.72 136.368L113.213 143.217L109.118 144.707L102.838 127.452L109.418 125.057C110.247 124.755 111.086 124.547 111.936 124.43C112.787 124.314 113.598 124.345 114.372 124.524C115.145 124.702 115.84 125.057 116.456 125.587C117.072 126.117 117.561 126.878 117.921 127.869C118.347 129.038 118.388 130.137 118.044 131.164C117.7 132.19 117.03 133.078 116.033 133.828L123.229 139.571L118.355 141.345ZM113.829 129.441C113.681 129.035 113.476 128.737 113.214 128.547C112.952 128.357 112.661 128.242 112.343 128.202C112.025 128.161 111.69 128.177 111.339 128.249C110.988 128.322 110.659 128.414 110.35 128.527L108.132 129.334L109.596 133.355L111.57 132.637C111.911 132.513 112.25 132.357 112.587 132.17C112.924 131.983 113.212 131.763 113.451 131.511C113.69 131.258 113.853 130.959 113.939 130.615C114.025 130.271 113.989 129.88 113.829 129.441Z" fill="#384C75"/>
<path d="M84.9272 171.286C85.4771 172.798 85.6714 174.203 85.5101 175.504C85.3487 176.805 84.9376 177.976 84.2769 179.017C83.6161 180.057 82.7696 180.954 81.7372 181.707C80.7049 182.46 79.5957 183.053 78.4096 183.484L71.9755 185.826L65.6952 168.571L71.9343 166.3C73.1529 165.857 74.4069 165.561 75.6965 165.414C76.9861 165.267 78.2137 165.353 79.3793 165.674C80.5449 165.995 81.6131 166.605 82.5839 167.503C83.5547 168.4 84.3358 169.662 84.9272 171.286ZM80.589 172.865C80.2342 171.891 79.7816 171.14 79.2312 170.613C78.6808 170.087 78.072 169.729 77.405 169.539C76.738 169.35 76.0378 169.296 75.3044 169.379C74.571 169.462 73.8468 169.634 73.1319 169.894L71.0603 170.648L74.7327 180.738L76.7068 180.019C77.4542 179.747 78.1421 179.4 78.7705 178.978C79.399 178.556 79.9062 178.054 80.2924 177.472C80.6785 176.89 80.9117 176.216 80.992 175.451C81.0723 174.686 80.9379 173.824 80.589 172.865Z" fill="#384C75"/>
<path d="M102.562 174.694L99.9883 171.794L93.3105 174.224L93.2762 178.073L88.7431 179.723L89.7011 159.834L93.7468 158.361L107.192 173.008L102.562 174.694ZM93.3273 163.73L93.2894 170.451L97.6276 168.872L93.3273 163.73Z" fill="#384C75"/>
<path d="M113.5 162.432L116.161 169.744L111.993 171.261L109.332 163.949L99.2303 156.365L104.275 154.529L110.279 159.575L111.635 151.85L116.51 150.076L113.5 162.432Z" fill="#384C75"/>
</g>
</g>
<g clip-path="url(#clip6_2012_3)">
<g clip-path="url(#clip7_2012_3)">
<path d="M95.9433 388.919L195.587 377.003C206.44 375.704 216.301 383.356 217.776 394.144L217.818 394.487L229.731 494.181C231.04 505.148 223.212 515.101 212.245 516.414L112.602 528.33C101.749 529.629 91.8879 521.977 90.4127 511.189L78.4577 411.152C77.1489 400.185 84.9766 390.232 95.9433 388.919Z" fill="#F0AD84"/>
<path d="M133.305 447.514C132.612 448.539 131.707 449.395 130.589 450.081C129.471 450.767 128.14 451.205 126.595 451.395C125.188 451.567 123.86 451.495 122.61 451.178C121.36 450.862 120.246 450.332 119.266 449.59C118.287 448.848 117.475 447.915 116.832 446.792C116.189 445.669 115.78 444.396 115.605 442.971C115.426 441.513 115.517 440.16 115.878 438.914C116.239 437.667 116.814 436.573 117.605 435.631C118.395 434.689 119.363 433.922 120.51 433.328C121.656 432.734 122.925 432.352 124.315 432.181C125.602 432.023 126.895 432.095 128.195 432.397C129.495 432.699 130.585 433.241 131.465 434.021L128.846 437.374C128.364 436.858 127.772 436.504 127.069 436.311C126.366 436.119 125.663 436.066 124.959 436.152C124.187 436.247 123.496 436.476 122.887 436.838C122.279 437.2 121.773 437.659 121.371 438.213C120.969 438.768 120.68 439.4 120.506 440.109C120.332 440.819 120.294 441.577 120.393 442.383C120.495 443.207 120.716 443.946 121.058 444.601C121.399 445.256 121.828 445.8 122.343 446.233C122.857 446.667 123.449 446.982 124.118 447.178C124.787 447.375 125.498 447.427 126.254 447.334C127.129 447.227 127.871 446.961 128.481 446.538C129.091 446.115 129.56 445.604 129.887 445.007L133.305 447.514Z" fill="#A54E34"/>
<path d="M153.697 438.242C153.874 439.683 153.787 441.031 153.436 442.285C153.085 443.539 152.519 444.645 151.74 445.603C150.96 446.561 149.99 447.346 148.828 447.959C147.667 448.572 146.374 448.966 144.949 449.141C143.525 449.316 142.179 449.246 140.913 448.931C139.646 448.616 138.518 448.088 137.53 447.348C136.542 446.607 135.726 445.67 135.082 444.539C134.438 443.407 134.027 442.12 133.85 440.679C133.671 439.22 133.758 437.872 134.111 436.636C134.465 435.399 135.033 434.315 135.816 433.382C136.598 432.45 137.567 431.687 138.722 431.092C139.877 430.497 141.167 430.112 142.591 429.937C144.016 429.762 145.365 429.823 146.638 430.12C147.911 430.416 149.04 430.922 150.025 431.638C151.01 432.353 151.824 433.268 152.466 434.382C153.108 435.497 153.518 436.783 153.697 438.242ZM148.987 438.82C148.89 438.031 148.67 437.309 148.329 436.654C147.987 435.999 147.559 435.455 147.044 435.022C146.529 434.588 145.932 434.27 145.254 434.066C144.576 433.861 143.85 433.807 143.078 433.902C142.306 433.996 141.62 434.224 141.019 434.586C140.419 434.947 139.918 435.4 139.514 435.946C139.111 436.492 138.827 437.124 138.662 437.841C138.498 438.558 138.464 439.311 138.561 440.1C138.662 440.924 138.884 441.668 139.227 442.331C139.57 442.995 139.999 443.547 140.515 443.989C141.031 444.431 141.624 444.754 142.293 444.96C142.963 445.165 143.684 445.22 144.456 445.125C145.229 445.03 145.915 444.802 146.515 444.441C147.115 444.08 147.616 443.622 148.019 443.068C148.421 442.513 148.708 441.873 148.88 441.146C149.052 440.419 149.088 439.644 148.987 438.82Z" fill="#A54E34"/>
<path d="M174.269 435.742C174.465 437.338 174.338 438.752 173.888 439.983C173.438 441.214 172.774 442.262 171.896 443.128C171.018 443.993 169.992 444.677 168.816 445.178C167.641 445.68 166.427 446.007 165.174 446.161L158.378 446.996L156.141 428.77L162.731 427.961C164.018 427.803 165.306 427.797 166.596 427.944C167.885 428.09 169.062 428.451 170.126 429.026C171.189 429.601 172.093 430.435 172.837 431.528C173.581 432.621 174.058 434.026 174.269 435.742ZM169.687 436.305C169.56 435.275 169.288 434.442 168.87 433.805C168.452 433.168 167.94 432.682 167.332 432.348C166.725 432.013 166.055 431.803 165.322 431.719C164.588 431.635 163.844 431.639 163.089 431.732L160.901 432.001L162.209 442.658L164.295 442.402C165.084 442.305 165.832 442.122 166.54 441.852C167.247 441.582 167.854 441.207 168.361 440.727C168.868 440.246 169.247 439.642 169.498 438.915C169.748 438.187 169.811 437.317 169.687 436.305Z" fill="#A54E34"/>
<path d="M178.946 444.47L176.708 426.245L188.962 424.74L189.42 428.473L181.414 429.456L181.835 432.88L189.403 431.95L189.836 435.477L182.268 436.406L182.732 440.19L191.201 439.15L191.663 442.909L178.946 444.47Z" fill="#A54E34"/>
<path d="M112.384 478.773L110.146 460.548L122.4 459.043L122.858 462.776L114.852 463.759L115.273 467.183L122.841 466.254L123.274 469.78L115.706 470.709L116.17 474.494L124.639 473.454L125.101 477.212L112.384 478.773Z" fill="#A54E34"/>
<path d="M141.01 475.259L139.154 471.854L132.101 472.72L131.202 476.463L126.414 477.051L131.821 457.887L136.095 457.362L145.901 474.658L141.01 475.259ZM134.478 462.499L132.929 469.039L137.512 468.476L134.478 462.499Z" fill="#A54E34"/>
<path d="M156.034 459.722C155.598 459.288 155.058 458.966 154.414 458.758C153.77 458.55 153.164 458.48 152.598 458.55C152.306 458.586 152.013 458.648 151.719 458.736C151.425 458.824 151.167 458.956 150.945 459.132C150.723 459.307 150.544 459.521 150.41 459.772C150.275 460.024 150.23 460.33 150.274 460.69C150.312 460.999 150.408 461.249 150.562 461.439C150.716 461.629 150.927 461.786 151.195 461.91C151.462 462.034 151.776 462.139 152.135 462.226C152.494 462.312 152.896 462.398 153.342 462.482C153.985 462.613 154.657 462.761 155.357 462.928C156.057 463.094 156.706 463.35 157.306 463.694C157.906 464.039 158.423 464.493 158.858 465.058C159.294 465.623 159.567 466.361 159.679 467.27C159.807 468.317 159.725 469.246 159.433 470.057C159.141 470.868 158.699 471.563 158.108 472.14C157.517 472.718 156.816 473.179 156.004 473.522C155.193 473.866 154.341 474.092 153.449 474.202C152.144 474.362 150.855 474.29 149.581 473.984C148.306 473.679 147.214 473.156 146.304 472.414L148.827 469.125C149.341 469.62 149.985 470.007 150.76 470.286C151.534 470.565 152.282 470.661 153.003 470.572C153.329 470.532 153.642 470.459 153.943 470.352C154.243 470.246 154.5 470.101 154.713 469.918C154.925 469.735 155.084 469.507 155.19 469.232C155.296 468.958 155.327 468.641 155.282 468.28C155.24 467.937 155.118 467.656 154.917 467.437C154.716 467.218 154.445 467.029 154.103 466.87C153.761 466.712 153.345 466.58 152.853 466.475C152.361 466.37 151.803 466.26 151.179 466.145C150.572 466.028 149.974 465.875 149.385 465.686C148.796 465.497 148.257 465.228 147.77 464.878C147.283 464.529 146.871 464.083 146.535 463.54C146.198 462.998 145.979 462.315 145.878 461.491C145.754 460.479 145.853 459.587 146.177 458.816C146.5 458.044 146.968 457.386 147.58 456.84C148.193 456.295 148.906 455.863 149.721 455.545C150.535 455.228 151.372 455.016 152.23 454.911C153.259 454.784 154.334 454.844 155.453 455.09C156.572 455.336 157.58 455.778 158.477 456.417L156.034 459.722Z" fill="#A54E34"/>
<path d="M163.92 472.446L161.682 454.22L166.11 453.676L168.348 471.902L163.92 472.446Z" fill="#A54E34"/>
<path d="M172.75 471.361L170.512 453.136L182.765 451.631L183.224 455.364L175.218 456.347L175.638 459.771L183.206 458.842L183.639 462.368L176.071 463.297L176.536 467.082L185.005 466.042L185.466 469.8L172.75 471.361Z" fill="#A54E34"/>
<path d="M198.775 468.166L193.949 461.416L192.455 461.599L193.344 468.833L189.019 469.364L186.781 451.138L193.732 450.285C194.607 450.177 195.472 450.163 196.326 450.241C197.181 450.319 197.964 450.532 198.678 450.88C199.391 451.228 199.989 451.729 200.47 452.384C200.951 453.039 201.256 453.89 201.384 454.937C201.536 456.173 201.329 457.252 200.763 458.175C200.197 459.098 199.344 459.813 198.204 460.319L203.924 467.534L198.775 468.166ZM197.043 455.549C196.99 455.12 196.858 454.783 196.645 454.539C196.432 454.295 196.175 454.118 195.874 454.007C195.573 453.896 195.243 453.836 194.885 453.828C194.527 453.819 194.185 453.835 193.859 453.875L191.516 454.163L192.038 458.41L194.123 458.154C194.483 458.11 194.849 458.035 195.219 457.928C195.589 457.822 195.919 457.673 196.209 457.48C196.499 457.288 196.725 457.034 196.886 456.718C197.048 456.402 197.1 456.012 197.043 455.549Z" fill="#A54E34"/>
</g>
</g>
<g clip-path="url(#clip8_2012_3)">
<g clip-path="url(#clip9_2012_3)">
<path d="M222.447 174.272C226.215 170.123 232.739 170.123 236.506 174.272L241.105 179.338C243.7 182.195 247.768 183.198 251.394 181.874L257.819 179.525C263.084 177.601 268.861 180.633 270.268 186.058L271.986 192.68C272.955 196.416 276.091 199.194 279.918 199.706L286.699 200.612C292.255 201.356 295.961 206.724 294.686 212.182L293.129 218.844C292.251 222.603 293.737 226.519 296.887 228.751L302.47 232.704C307.044 235.944 307.83 242.42 304.164 246.66L299.69 251.835C297.165 254.755 296.66 258.913 298.413 262.354L301.518 268.448C304.063 273.443 301.75 279.542 296.533 281.593L290.166 284.096C286.573 285.509 284.193 288.956 284.146 292.816L284.064 299.656C283.995 305.261 279.112 309.587 273.539 308.978L266.738 308.236C262.901 307.817 259.191 309.763 257.356 313.16L254.103 319.178C251.438 324.109 245.104 325.67 240.452 322.542L234.776 318.725C231.571 316.571 227.382 316.571 224.178 318.725L218.501 322.542C213.85 325.67 207.515 324.109 204.85 319.178L201.597 313.16C199.762 309.764 196.053 307.817 192.215 308.236L185.414 308.978C179.842 309.587 174.958 305.261 174.89 299.656L174.807 292.816C174.761 288.956 172.38 285.509 168.788 284.096L162.421 281.593C157.204 279.542 154.891 273.443 157.435 268.448L160.541 262.354C162.294 258.913 161.789 254.755 159.264 251.835L154.789 246.66C151.123 242.42 151.91 235.944 156.484 232.704L162.067 228.751C165.217 226.519 166.703 222.603 165.825 218.844L164.267 212.182C162.992 206.724 166.699 201.356 172.255 200.612L179.036 199.706C182.862 199.194 185.998 196.416 186.968 192.68L188.685 186.058C190.092 180.633 195.87 177.601 201.134 179.525L207.56 181.874C211.186 183.198 215.253 182.195 217.849 179.338L222.447 174.272Z" fill="#DBEBEA"/>
<path d="M211.158 210.116C210.958 211.534 209.646 212.521 208.229 212.32C206.812 212.12 205.825 210.808 206.026 209.39C206.226 207.972 207.538 206.985 208.955 207.186C210.372 207.386 211.359 208.699 211.158 210.116Z" fill="#384C75"/>
<path d="M239.563 211.973C238.624 212.207 237.606 212.207 236.511 212.052C235.493 211.895 234.554 211.582 233.771 211.112C232.989 210.643 232.284 210.016 231.737 209.312C231.189 208.607 230.797 207.747 230.641 206.886C230.484 206.025 230.405 205.007 230.562 203.991C230.719 202.973 231.11 202.034 231.58 201.252C232.049 200.469 232.676 199.843 233.458 199.295C234.241 198.747 235.024 198.434 235.963 198.277C236.902 198.121 237.842 198.121 238.859 198.277C239.798 198.434 240.659 198.747 241.52 199.216C242.381 199.686 243.007 200.312 243.477 201.016L240.972 202.816C240.738 202.347 240.345 201.955 239.954 201.643C239.485 201.33 239.015 201.173 238.545 201.095C237.997 201.016 237.45 201.016 236.98 201.173C236.511 201.33 236.041 201.486 235.649 201.8C235.258 202.112 234.945 202.503 234.632 202.973C234.319 203.443 234.162 203.912 234.085 204.538C234.006 205.164 234.006 205.712 234.085 206.182C234.162 206.652 234.397 207.199 234.632 207.591C234.867 207.982 235.258 208.373 235.649 208.607C236.041 208.843 236.589 209.077 237.137 209.155C237.763 209.234 238.311 209.234 238.859 209.077C239.406 208.921 239.798 208.686 240.111 208.295L241.99 210.721C241.285 211.268 240.502 211.738 239.563 211.973Z" fill="#384C75"/>
<path d="M258.4 213.455C257.837 214.434 257.194 215.169 256.469 215.74C255.745 216.311 254.86 216.719 253.975 216.965C253.09 217.209 252.125 217.209 251.158 217.046C250.193 216.883 249.227 216.557 248.342 215.986C247.377 215.413 246.653 214.761 246.008 214.026C245.365 213.292 244.963 212.394 244.722 211.497C244.48 210.599 244.4 209.701 244.561 208.721C244.722 207.742 245.043 206.762 245.526 205.865C246.089 204.885 246.733 204.151 247.457 203.579C248.262 203.008 249.066 202.6 249.952 202.355C250.837 202.111 251.721 202.111 252.688 202.274C253.653 202.436 254.619 202.763 255.504 203.334C256.469 203.906 257.194 204.559 257.837 205.294C258.481 206.028 258.883 206.844 259.205 207.742C259.446 208.639 259.527 209.537 259.446 210.516C259.366 211.497 258.883 212.476 258.4 213.455ZM255.262 211.66C255.584 211.17 255.745 210.599 255.826 210.027C255.906 209.456 255.906 208.966 255.826 208.477C255.745 207.987 255.504 207.497 255.182 207.089C254.86 206.681 254.457 206.273 253.975 206.028C253.492 205.702 252.929 205.538 252.446 205.538C251.964 205.456 251.4 205.538 250.917 205.702C250.434 205.865 249.952 206.11 249.55 206.436C249.146 206.762 248.744 207.252 248.503 207.742C248.181 208.313 248.02 208.803 247.859 209.374C247.779 209.945 247.779 210.435 247.859 210.925C247.94 211.414 248.181 211.905 248.503 212.312C248.825 212.72 249.227 213.128 249.71 213.374C250.193 213.7 250.756 213.863 251.239 213.863C251.721 213.945 252.285 213.863 252.768 213.7C253.251 213.537 253.733 213.292 254.135 212.965C254.539 212.639 255.021 212.149 255.262 211.66Z" fill="#384C75"/>
<path d="M260.632 227.281L264.279 217.52V217.44L257.38 222.96L255.477 220.481L266.103 212.16L268.402 215.12L264.675 224.8V224.88L271.574 219.36L273.477 221.84L262.852 230.16L260.632 227.281Z" fill="#384C75"/>
<path d="M265.549 238.358L264.477 235.228L276.189 226.16L277.343 229.691L268.848 235.629V235.709H279.322L280.477 239.16L265.549 238.358Z" fill="#384C75"/>
<path d="M267.477 243.404L281.314 243.16L281.477 252.428L278.628 252.51L278.546 246.412L275.942 246.494L276.024 252.266L273.337 252.347L273.256 246.575L270.407 246.656L270.488 253.079L267.64 253.16L267.477 243.404Z" fill="#384C75"/>
<path d="M265.506 261.14L271.447 259.856L271.764 258.814L266.615 257.209L267.566 254.16L280.477 258.092L278.971 263.066C278.813 263.707 278.575 264.269 278.258 264.83C277.942 265.392 277.545 265.873 277.149 266.274C276.675 266.675 276.199 266.917 275.645 267.076C275.09 267.237 274.377 267.157 273.664 266.917C272.793 266.675 272.16 266.195 271.684 265.552C271.209 264.911 270.971 264.108 270.971 263.146L264.477 264.83L265.506 261.14ZM274.457 263.788C274.773 263.868 275.012 263.868 275.249 263.788C275.486 263.707 275.645 263.627 275.803 263.386C275.962 263.146 276.12 262.985 276.199 262.745C276.279 262.504 276.436 262.263 276.436 262.022L276.912 260.338L273.902 259.455L273.427 260.979C273.347 261.221 273.269 261.541 273.269 261.782V262.584C273.347 262.824 273.427 263.066 273.586 263.306C273.744 263.547 274.14 263.707 274.457 263.788Z" fill="#384C75"/>
<path d="M269.319 276.568L260.477 270.807L262.293 268.16L271.135 273.921L273.187 270.807L275.477 272.286L269.476 281.16L267.187 279.681L269.319 276.568Z" fill="#384C75"/>
<path d="M247.232 281.761L250.222 286.604L254.63 283.779L251.639 278.935L254.394 277.16L261.477 288.783L258.722 290.559L256.046 286.201L251.639 289.026L254.315 293.384L251.561 295.16L244.477 283.536L247.232 281.761Z" fill="#384C75"/>
<path d="M242.38 284.16L245.477 297.051L236.883 299.16L236.264 296.504L241.916 295.176L241.296 292.754L235.954 294.004L235.335 291.504L240.677 290.254L240.057 287.597L234.097 289.004L233.477 286.347L242.38 284.16Z" fill="#384C75"/>
<path d="M232.204 286.16L232.477 300.079L228.749 300.16L228.477 286.241L232.204 286.16Z" fill="#384C75"/>
<path d="M216.954 284.269C217.881 284.112 218.884 284.112 219.965 284.348C220.969 284.584 221.819 284.976 222.59 285.446C223.362 285.995 223.98 286.623 224.443 287.33C224.906 288.036 225.215 288.898 225.37 289.84C225.523 290.782 225.523 291.723 225.292 292.743C225.061 293.763 224.675 294.705 224.135 295.411C223.594 296.196 222.976 296.745 222.204 297.216C221.432 297.686 220.583 297.921 219.656 298.078C218.73 298.235 217.804 298.157 216.8 297.921C215.874 297.686 215.024 297.372 214.252 296.823C213.481 296.274 212.863 295.646 212.477 294.94L215.024 293.293C215.256 293.763 215.565 294.156 215.951 294.469C216.414 294.783 216.8 295.018 217.34 295.097C217.881 295.254 218.421 295.254 218.884 295.175C219.348 295.097 219.811 294.861 220.274 294.626C220.66 294.312 221.046 293.999 221.278 293.528C221.586 293.057 221.741 292.586 221.895 292.037C222.05 291.488 222.05 290.86 221.972 290.39C221.895 289.84 221.741 289.369 221.51 288.977C221.278 288.585 220.969 288.193 220.583 287.879C220.197 287.565 219.734 287.408 219.194 287.251C218.575 287.093 218.035 287.093 217.495 287.251C216.954 287.408 216.568 287.643 216.183 287.957L214.484 285.368C215.179 284.819 216.028 284.427 216.954 284.269Z" fill="#384C75"/>
<path d="M199.279 286.732L205.79 278.16L208.477 280.064L201.965 288.636L205.139 290.938L203.43 293.16L194.477 286.732L196.186 284.509L199.279 286.732Z" fill="#384C75"/>
<path d="M188.511 267.553C189.413 266.913 190.314 266.513 191.297 266.352C192.28 266.111 193.182 266.111 194.083 266.272C194.985 266.432 195.885 266.832 196.705 267.393C197.524 267.953 198.261 268.674 198.916 269.555C199.572 270.437 199.982 271.318 200.227 272.279C200.474 273.24 200.555 274.121 200.391 275.082C200.227 275.963 199.9 276.844 199.408 277.645C198.916 278.445 198.18 279.166 197.278 279.807C196.377 280.447 195.394 280.848 194.493 281.008C193.51 281.168 192.608 281.249 191.707 281.008C190.805 280.848 189.986 280.447 189.167 279.887C188.347 279.326 187.61 278.605 187.036 277.725C186.381 276.844 185.972 275.963 185.725 275.002C185.48 274.041 185.398 273.16 185.562 272.279C185.725 271.398 185.972 270.516 186.545 269.716C186.873 268.915 187.528 268.194 188.511 267.553ZM190.56 270.437C190.069 270.757 189.658 271.158 189.331 271.638C189.003 272.118 188.839 272.599 188.675 273.079C188.594 273.56 188.594 274.041 188.675 274.602C188.758 275.162 189.003 275.642 189.331 276.042C189.658 276.523 190.069 276.844 190.56 277.164C191.052 277.405 191.461 277.565 192.035 277.645C192.527 277.725 193.1 277.645 193.591 277.565C194.083 277.484 194.657 277.164 195.148 276.844C195.64 276.523 196.049 276.123 196.377 275.642C196.705 275.162 196.95 274.681 197.032 274.2C197.114 273.72 197.114 273.24 197.032 272.679C196.95 272.118 196.705 271.718 196.377 271.237C196.049 270.757 195.64 270.437 195.148 270.116C194.657 269.876 194.247 269.716 193.674 269.636C193.1 269.555 192.608 269.636 192.116 269.716C191.625 269.795 191.052 270.116 190.56 270.437Z" fill="#384C75"/>
<path d="M189.277 251.16C189.937 251.16 190.514 251.328 191.009 251.58C191.504 251.833 192.081 252.254 192.493 252.758C192.905 253.347 193.235 254.02 193.4 255.029C193.564 256.206 193.482 257.3 192.987 258.141C192.493 259.066 191.833 259.74 190.927 260.16L189.442 257.3C189.772 257.132 190.02 256.963 190.267 256.627C190.432 256.375 190.514 256.038 190.432 255.702C190.35 255.114 190.102 254.777 189.69 254.692C189.277 254.609 188.782 254.609 188.123 254.692L179.054 256.291L178.477 252.842L187.546 251.245C188.123 251.16 188.7 251.16 189.277 251.16Z" fill="#384C75"/>
<path d="M182.787 238.207C183.592 238.284 184.236 238.518 184.718 238.828C185.201 239.139 185.603 239.605 185.925 240.149C186.166 240.693 186.407 241.237 186.488 241.858C186.568 242.48 186.568 243.179 186.488 243.878L186.327 245.431L191.477 245.975L191.155 249.16L177.477 247.684L178.04 242.868C178.12 242.169 178.281 241.469 178.442 240.848C178.684 240.226 178.925 239.683 179.327 239.294C179.729 238.906 180.213 238.518 180.695 238.362C181.339 238.129 181.982 238.129 182.787 238.207ZM182.465 241.314C182.143 241.314 181.902 241.314 181.661 241.392C181.419 241.469 181.258 241.625 181.098 241.858C180.937 242.091 180.856 242.324 180.776 242.557C180.695 242.868 180.695 243.101 180.615 243.412L180.454 244.81L183.672 245.121L183.833 243.8C183.833 243.489 183.833 243.179 183.833 242.945C183.833 242.635 183.753 242.401 183.672 242.169C183.592 241.936 183.431 241.78 183.189 241.625C183.028 241.469 182.706 241.392 182.465 241.314Z" fill="#384C75"/>
<path d="M197.159 229.111C196.999 229.97 196.68 230.908 196.202 231.845C195.724 232.782 195.167 233.641 194.449 234.265C193.732 234.891 193.015 235.437 192.138 235.75C191.262 236.062 190.386 236.218 189.429 236.14C188.473 236.14 187.517 235.828 186.561 235.437C185.605 234.968 184.808 234.422 184.171 233.719C183.533 233.016 183.055 232.235 182.816 231.376C182.577 230.516 182.418 229.658 182.498 228.72C182.577 227.783 182.816 226.846 183.294 225.987C183.773 225.05 184.33 224.19 185.048 223.566C185.764 222.941 186.481 222.394 187.198 222.16L188.473 224.972C187.996 225.127 187.517 225.362 187.119 225.674C186.721 226.065 186.323 226.533 186.004 227.08C185.764 227.627 185.605 228.096 185.605 228.642C185.605 229.189 185.685 229.658 185.844 230.126C186.004 230.595 186.323 231.063 186.721 231.454C187.119 231.845 187.596 232.157 188.155 232.391C188.713 232.625 189.271 232.782 189.828 232.859C190.386 232.938 190.863 232.859 191.421 232.704C191.9 232.548 192.378 232.313 192.776 231.922C193.175 231.532 193.573 231.063 193.812 230.516C193.971 230.205 194.131 229.813 194.211 229.502C194.29 229.189 194.369 228.876 194.369 228.565L192.138 227.549L191.023 229.813L188.633 228.72L191.023 223.8L197.477 226.768C197.398 227.47 197.317 228.252 197.159 229.111Z" fill="#384C75"/>
</g>
</g>
<defs>
<clipPath id="clip0_2012_3">
<rect width="201.52" height="126.33" fill="white" transform="translate(91.74)"/>
</clipPath>
<clipPath id="clip1_2012_3">
<rect width="201.52" height="126.326" fill="white" transform="translate(91.74 0.00201416)"/>
</clipPath>
<clipPath id="clip2_2012_3">
<rect width="230" height="128" fill="white" transform="translate(19 272.16)"/>
</clipPath>
<clipPath id="clip3_2012_3">
<rect width="230" height="128" fill="white" transform="translate(19 272.16)"/>
</clipPath>
<clipPath id="clip4_2012_3">
<rect width="169" height="169" fill="white" transform="translate(0 60.16)"/>
</clipPath>
<clipPath id="clip5_2012_3">
<rect width="169" height="169" fill="white" transform="translate(0 60.16)"/>
</clipPath>
<clipPath id="clip6_2012_3">
<rect width="152" height="153" fill="white" transform="translate(78 376.16)"/>
</clipPath>
<clipPath id="clip7_2012_3">
<rect width="152" height="153" fill="white" transform="translate(78 376.16)"/>
</clipPath>
<clipPath id="clip8_2012_3">
<rect width="155" height="153" fill="white" transform="translate(152 171.16)"/>
</clipPath>
<clipPath id="clip9_2012_3">
<rect width="155" height="153" fill="white" transform="translate(152 171.16)"/>
</clipPath>
</defs>
</svg>
