<svg width="252" height="548" viewBox="0 0 252 548" fill="none" xmlns="http://www.w3.org/2000/svg">
<g clip-path="url(#clip0_2012_2)">
<g clip-path="url(#clip1_2012_2)">
<path d="M104.634 293.623C107.689 292.533 110.972 292.238 114.175 292.763L216.074 309.488C220.378 310.195 223.658 313.717 224.051 318.052L227.921 360.857C228.313 365.192 225.717 369.244 221.61 370.707L124.357 405.367C121.301 406.457 118.018 406.752 114.816 406.227L12.9162 389.502C8.61219 388.795 5.33176 385.273 4.93977 380.938L1.069 338.133C0.677006 333.798 3.27257 329.746 7.38024 328.283L104.634 293.623Z" fill="#99D7F1"/>
<path d="M82.7548 341.32C82.843 342.327 82.7173 343.192 82.3778 343.913C82.0382 344.634 81.5567 345.232 80.933 345.706C80.3093 346.181 79.5842 346.547 78.7576 346.803C77.931 347.059 77.0747 347.226 76.1887 347.303L68.8402 347.946L67.2261 329.497L74.5746 328.854C75.2868 328.791 76.0229 328.801 76.7829 328.884C77.5428 328.966 78.2423 329.159 78.8815 329.462C79.5207 329.765 80.058 330.203 80.4934 330.778C80.9288 331.352 81.1875 332.109 81.2696 333.047C81.3593 334.072 81.1554 334.943 80.658 335.661C80.1606 336.378 79.4731 336.924 78.5956 337.298L78.6002 337.35C79.129 337.392 79.6338 337.51 80.1147 337.704C80.5956 337.898 81.0213 338.163 81.392 338.498C81.7627 338.833 82.0692 339.235 82.3115 339.704C82.5539 340.173 82.7016 340.712 82.7548 341.32ZM77.0224 334.022C76.9677 333.397 76.6889 332.962 76.1861 332.717C75.6833 332.472 74.9628 332.391 74.0247 332.473L71.8358 332.664L72.1686 336.469L74.566 336.259C75.3999 336.186 76.0322 335.96 76.4629 335.581C76.8936 335.202 77.0801 334.683 77.0224 334.022ZM78.2624 341.292C78.1955 340.528 77.8625 340.023 77.2634 339.778C76.6642 339.533 75.8869 339.452 74.9314 339.536L72.4559 339.752L72.8252 343.974L75.3268 343.755C75.6743 343.725 76.0321 343.663 76.4003 343.569C76.7685 343.476 77.0977 343.337 77.3881 343.155C77.6784 342.972 77.9066 342.728 78.0726 342.425C78.2386 342.122 78.3019 341.744 78.2624 341.292Z" fill="#556265"/>
<path d="M105.238 335.388C105.366 336.847 105.23 338.202 104.832 339.454C104.434 340.705 103.825 341.8 103.006 342.738C102.186 343.676 101.18 344.434 99.9879 345.011C98.7955 345.588 97.4784 345.94 96.0365 346.066C94.5946 346.192 93.2407 346.074 91.9749 345.712C90.7091 345.35 89.5913 344.778 88.6214 343.997C87.6515 343.215 86.8618 342.243 86.2524 341.079C85.6429 339.916 85.2744 338.605 85.1467 337.145C85.0175 335.669 85.1528 334.313 85.5525 333.079C85.9522 331.845 86.5629 330.772 87.3846 329.86C88.2063 328.948 89.2098 328.212 90.395 327.653C91.5802 327.095 92.8938 326.752 94.3357 326.626C95.7776 326.5 97.1351 326.609 98.408 326.952C99.681 327.296 100.801 327.846 101.769 328.601C102.737 329.357 103.524 330.308 104.132 331.454C104.74 332.6 105.109 333.911 105.238 335.388ZM100.469 335.805C100.399 335.006 100.204 334.27 99.8822 333.598C99.5608 332.926 99.1483 332.362 98.6446 331.908C98.1409 331.453 97.5508 331.111 96.8743 330.881C96.1977 330.651 95.4686 330.571 94.6868 330.639C93.9051 330.707 93.2053 330.913 92.5876 331.256C91.9699 331.599 91.4482 332.038 91.0225 332.574C90.5967 333.111 90.2883 333.737 90.0972 334.454C89.9061 335.171 89.8455 335.929 89.9154 336.728C89.9884 337.562 90.1859 338.319 90.5081 339C90.8302 339.681 91.2435 340.253 91.748 340.717C92.2524 341.18 92.8386 341.527 93.5064 341.758C94.1743 341.988 94.8991 342.069 95.6808 342.001C96.4626 341.932 97.1623 341.726 97.78 341.384C98.3977 341.041 98.919 340.597 99.344 340.052C99.769 339.507 100.081 338.872 100.28 338.145C100.479 337.419 100.542 336.639 100.469 335.805Z" fill="#556265"/>
<path d="M128.065 333.39C128.193 334.85 128.058 336.205 127.66 337.456C127.261 338.708 126.653 339.803 125.833 340.741C125.014 341.679 124.008 342.437 122.815 343.014C121.623 343.591 120.306 343.942 118.864 344.068C117.422 344.195 116.068 344.077 114.802 343.715C113.537 343.353 112.419 342.781 111.449 341.999C110.479 341.218 109.689 340.245 109.08 339.082C108.47 337.919 108.102 336.607 107.974 335.148C107.845 333.671 107.98 332.316 108.38 331.082C108.78 329.848 109.39 328.775 110.212 327.863C111.034 326.951 112.037 326.215 113.222 325.656C114.408 325.097 115.721 324.755 117.163 324.629C118.605 324.503 119.962 324.611 121.235 324.955C122.508 325.299 123.629 325.849 124.596 326.604C125.564 327.36 126.352 328.311 126.96 329.457C127.568 330.602 127.936 331.914 128.065 333.39ZM123.297 333.808C123.227 333.008 123.031 332.273 122.71 331.601C122.388 330.929 121.976 330.365 121.472 329.91C120.968 329.456 120.378 329.113 119.702 328.884C119.025 328.654 118.296 328.573 117.514 328.642C116.732 328.71 116.033 328.916 115.415 329.259C114.797 329.602 114.276 330.041 113.85 330.577C113.424 331.113 113.116 331.74 112.925 332.457C112.734 333.174 112.673 333.932 112.743 334.731C112.816 335.565 113.013 336.322 113.335 337.003C113.658 337.684 114.071 338.256 114.575 338.719C115.08 339.183 115.666 339.53 116.334 339.76C117.002 339.991 117.726 340.072 118.508 340.003C119.29 339.935 119.99 339.729 120.607 339.386C121.225 339.043 121.746 338.6 122.171 338.055C122.596 337.51 122.908 336.874 123.107 336.148C123.306 335.422 123.369 334.641 123.297 333.808Z" fill="#556265"/>
<path d="M141.027 327.871C140.602 327.418 140.069 327.076 139.427 326.843C138.785 326.61 138.177 326.519 137.604 326.569C137.309 326.595 137.011 326.647 136.712 326.726C136.413 326.805 136.148 326.928 135.917 327.097C135.687 327.266 135.5 327.475 135.355 327.724C135.211 327.973 135.154 328.28 135.186 328.645C135.214 328.958 135.302 329.212 135.45 329.41C135.599 329.607 135.806 329.772 136.071 329.907C136.337 330.041 136.649 330.158 137.008 330.258C137.367 330.358 137.769 330.458 138.216 330.559C138.859 330.713 139.531 330.886 140.231 331.079C140.93 331.271 141.576 331.552 142.169 331.92C142.761 332.289 143.267 332.765 143.685 333.35C144.104 333.935 144.354 334.687 144.434 335.608C144.527 336.668 144.412 337.601 144.089 338.409C143.765 339.216 143.296 339.9 142.68 340.462C142.063 341.023 141.34 341.463 140.511 341.781C139.681 342.098 138.814 342.297 137.911 342.376C136.59 342.491 135.293 342.373 134.019 342.02C132.746 341.668 131.663 341.102 130.772 340.322L133.431 337.096C133.931 337.612 134.567 338.025 135.338 338.334C136.109 338.643 136.859 338.765 137.589 338.702C137.919 338.673 138.237 338.61 138.544 338.513C138.851 338.416 139.114 338.279 139.335 338.102C139.556 337.926 139.725 337.701 139.841 337.428C139.957 337.155 139.999 336.836 139.967 336.472C139.937 336.124 139.824 335.836 139.629 335.608C139.434 335.38 139.167 335.181 138.828 335.009C138.489 334.837 138.074 334.69 137.582 334.567C137.09 334.443 136.531 334.313 135.906 334.175C135.299 334.035 134.702 333.86 134.114 333.649C133.527 333.438 132.994 333.147 132.515 332.778C132.036 332.408 131.637 331.944 131.317 331.386C130.997 330.828 130.8 330.131 130.727 329.298C130.637 328.273 130.769 327.377 131.122 326.611C131.475 325.845 131.97 325.198 132.606 324.669C133.243 324.141 133.977 323.731 134.81 323.439C135.642 323.148 136.492 322.964 137.361 322.888C138.403 322.797 139.484 322.895 140.603 323.182C141.722 323.469 142.723 323.951 143.605 324.626L141.027 327.871Z" fill="#556265"/>
<path d="M154.803 325.668L156.084 340.313L151.628 340.703L150.347 326.058L145.135 326.514L144.802 322.71L159.682 321.408L160.015 325.212L154.803 325.668Z" fill="#556265"/>
<path d="M43.0897 361.7L44.3709 376.345L39.9149 376.735L38.6336 362.09L33.4219 362.546L33.0891 358.741L47.9685 357.439L48.3014 361.244L43.0897 361.7Z" fill="#556265"/>
<path d="M52.2666 375.654L50.6525 357.205L63.0564 356.119L63.387 359.898L55.2828 360.607L55.586 364.073L63.2472 363.402L63.5595 366.972L55.8983 367.643L56.2334 371.473L64.8067 370.723L65.1396 374.528L52.2666 375.654Z" fill="#556265"/>
<path d="M81.2437 373.119L79.4936 369.622L72.3536 370.247L71.3154 373.988L66.4685 374.412L72.5938 355.285L76.9195 354.907L86.1949 372.686L81.2437 373.119ZM75.1094 360.028L73.3181 366.565L77.9565 366.159L75.1094 360.028Z" fill="#556265"/>
<path d="M105.113 371.031L104.075 357.966L103.997 357.973L100.345 371.448L97.2176 371.721L91.4109 359.074L91.3328 359.081L92.5792 372.127L88.3838 372.494L86.7697 354.045L93.1019 353.491L98.3323 364.954L98.4366 364.945L101.415 352.764L107.851 352.2L109.465 370.65L105.113 371.031Z" fill="#556265"/>
<path d="M133.465 368.55L129.061 368.935L124.321 356.773L124.243 356.779L121.687 369.581L117.257 369.968L110.405 351.977L115.2 351.558L119.192 363.576L119.27 363.569L121.48 351.008L126.118 350.602L130.501 362.586L130.579 362.579L132.476 350.046L137.115 349.64L133.465 368.55Z" fill="#556265"/>
<path d="M159.387 356.908C159.515 358.367 159.379 359.723 158.981 360.974C158.583 362.226 157.974 363.32 157.155 364.259C156.335 365.197 155.33 365.954 154.137 366.531C152.945 367.108 151.628 367.46 150.186 367.586C148.744 367.712 147.39 367.594 146.124 367.232C144.858 366.87 143.74 366.299 142.771 365.517C141.801 364.735 141.011 363.763 140.402 362.6C139.792 361.436 139.424 360.125 139.296 358.666C139.167 357.189 139.302 355.834 139.702 354.6C140.101 353.366 140.712 352.292 141.534 351.38C142.355 350.468 143.359 349.733 144.544 349.174C145.729 348.615 147.043 348.272 148.485 348.146C149.927 348.02 151.284 348.129 152.557 348.473C153.83 348.817 154.95 349.366 155.918 350.122C156.886 350.877 157.673 351.828 158.281 352.974C158.889 354.12 159.258 355.431 159.387 356.908ZM154.618 357.325C154.548 356.526 154.353 355.79 154.031 355.118C153.71 354.446 153.297 353.883 152.794 353.428C152.29 352.973 151.7 352.631 151.023 352.401C150.347 352.172 149.618 352.091 148.836 352.159C148.054 352.228 147.355 352.433 146.737 352.776C146.119 353.119 145.597 353.559 145.172 354.095C144.746 354.631 144.437 355.257 144.246 355.974C144.055 356.691 143.995 357.449 144.065 358.248C144.138 359.082 144.335 359.84 144.657 360.52C144.979 361.201 145.393 361.773 145.897 362.237C146.402 362.7 146.988 363.047 147.656 363.278C148.323 363.508 149.048 363.589 149.83 363.521C150.612 363.452 151.311 363.247 151.929 362.904C152.547 362.561 153.068 362.117 153.493 361.572C153.918 361.028 154.23 360.392 154.429 359.666C154.628 358.939 154.691 358.159 154.618 357.325Z" fill="#556265"/>
<path d="M173.673 365.032L169.046 358.059L167.534 358.191L168.175 365.513L163.797 365.896L162.183 347.447L169.219 346.831C170.105 346.754 170.977 346.77 171.836 346.878C172.694 346.987 173.477 347.229 174.184 347.605C174.89 347.981 175.475 348.507 175.937 349.185C176.399 349.862 176.676 350.73 176.769 351.79C176.878 353.041 176.631 354.122 176.028 355.032C175.425 355.943 174.54 356.633 173.373 357.102L178.885 364.576L173.673 365.032ZM172.372 352.254C172.334 351.819 172.212 351.476 172.006 351.222C171.8 350.969 171.547 350.781 171.247 350.658C170.948 350.536 170.618 350.464 170.257 350.443C169.896 350.422 169.551 350.426 169.221 350.455L166.849 350.662L167.226 354.962L169.336 354.777C169.701 354.745 170.072 354.682 170.449 354.588C170.826 354.494 171.164 354.355 171.463 354.171C171.762 353.987 171.998 353.739 172.172 353.426C172.346 353.114 172.413 352.723 172.372 352.254Z" fill="#556265"/>
<path d="M193.009 363.341L185.412 355.445L185.36 355.45L186.103 363.945L181.725 364.328L180.111 345.878L184.489 345.495L185.146 353L185.224 352.993L191.16 344.912L196.737 344.424L189.532 353.614L198.82 362.832L193.009 363.341Z" fill="#556265"/>
</g>
</g>
<g clip-path="url(#clip2_2012_2)">
<g clip-path="url(#clip3_2012_2)">
<path d="M17.4365 130.684C7.83141 126.534 3.40886 115.384 7.55841 105.779L48.3159 11.4366C52.4655 1.83149 63.6158 -2.59116 73.221 1.55839L167.564 42.3159C177.168 46.4654 181.591 57.6159 177.442 67.2211L136.684 161.563C132.534 171.168 121.384 175.591 111.779 171.442L17.4365 130.684Z" fill="#F0AD84"/>
<path d="M66.6212 81.0427L62.5572 82.6846L54.5368 72.5263L54.4647 72.5554L55.7519 85.4342L51.6639 87.0858L39.9517 72.0133L44.3764 70.2257L51.6457 80.4637L51.7179 80.4345L50.1717 67.8842L54.4521 66.1548L62.0822 76.2471L62.1543 76.2179L60.3196 63.7842L64.6 62.0548L66.6212 81.0427Z" fill="#A54E34"/>
<path d="M87.825 62.4896C88.369 63.8363 88.6337 65.1606 88.6189 66.4626C88.6042 67.7646 88.3443 68.9792 87.8393 70.1063C87.3343 71.2334 86.6001 72.2434 85.6368 73.1361C84.6735 74.0288 83.5265 74.744 82.1959 75.2816C80.8653 75.8192 79.5474 76.0999 78.2423 76.1237C76.9372 76.1474 75.7116 75.9293 74.5653 75.4694C73.4191 75.0094 72.3885 74.3162 71.4734 73.3899C70.5583 72.4635 69.8287 71.327 69.2847 69.9804C68.7341 68.6177 68.4695 67.2934 68.4907 66.0074C68.5119 64.7214 68.7799 63.5269 69.2946 62.4238C69.8093 61.3207 70.5476 60.3325 71.5094 59.459C72.4712 58.5856 73.6174 57.8801 74.948 57.3425C76.2786 56.8049 77.5972 56.5145 78.9039 56.4715C80.2105 56.4284 81.4321 56.6248 82.5686 57.0608C83.7051 57.4967 84.7277 58.1698 85.6362 59.0802C86.5448 59.9905 87.2744 61.127 87.825 62.4896ZM83.4243 64.2676C83.1264 63.5302 82.7277 62.8894 82.2281 62.3453C81.7285 61.8012 81.1741 61.3865 80.5646 61.1013C79.9552 60.816 79.2965 60.6626 78.5884 60.6409C77.8804 60.6193 77.1656 60.7542 76.4442 61.0457C75.7228 61.3372 75.119 61.735 74.6327 62.2392C74.1464 62.7433 73.7791 63.3113 73.5309 63.9431C73.2826 64.5749 73.1718 65.2583 73.1984 65.9935C73.2251 66.7287 73.3873 67.465 73.6853 68.2024C73.9962 68.9719 74.403 69.6328 74.9058 70.1849C75.4086 70.737 75.9663 71.1597 76.579 71.4529C77.1917 71.7462 77.848 71.9053 78.5481 71.9301C79.2481 71.955 79.9588 71.8217 80.6802 71.5302C81.4016 71.2388 82.0055 70.8409 82.4918 70.3368C82.9781 69.8326 83.3437 69.2606 83.5887 68.6208C83.8337 67.981 83.9453 67.2879 83.9235 66.5415C83.9016 65.7951 83.7352 65.0371 83.4243 64.2676Z" fill="#A54E34"/>
<path d="M103.726 66.0514L97.3165 60.7807L95.9218 61.3442L98.6519 68.1014L94.612 69.7337L87.7333 52.7083L94.226 50.0851C95.0436 49.7548 95.8752 49.5167 96.7207 49.3709C97.5662 49.2251 98.3786 49.2279 99.1577 49.3793C99.9368 49.5307 100.644 49.8606 101.278 50.3689C101.912 50.8772 102.427 51.6203 102.822 52.5983C103.288 53.7525 103.367 54.8487 103.06 55.8869C102.752 56.925 102.113 57.8359 101.143 58.6194L108.535 64.1083L103.726 66.0514ZM98.7871 54.3123C98.6252 53.9116 98.4098 53.6209 98.1411 53.4404C97.8724 53.26 97.5782 53.155 97.2587 53.1256C96.9391 53.0962 96.6053 53.1239 96.2572 53.2086C95.9091 53.2933 95.5828 53.3971 95.2782 53.5202L93.0899 54.4043L94.693 58.3721L96.6408 57.5851C96.9775 57.4491 97.3108 57.2818 97.6408 57.0832C97.9708 56.8846 98.251 56.6548 98.4812 56.394C98.7115 56.1331 98.8638 55.8292 98.938 55.4821C99.0123 55.1351 98.962 54.7452 98.7871 54.3123Z" fill="#A54E34"/>
<path d="M121.569 58.8424L112.077 53.5583L112.029 53.5777L115.196 61.4171L111.156 63.0493L104.278 46.024L108.318 44.3918L111.116 51.3173L111.188 51.2882L114.474 41.9046L119.62 39.8254L115.453 50.628L126.931 56.6759L121.569 58.8424Z" fill="#A54E34"/>
<path d="M82.9498 102.418L78.8858 104.06L70.8654 93.9015L70.7933 93.9307L72.0805 106.809L67.9925 108.461L56.2803 93.3886L60.705 91.6009L67.9743 101.839L68.0465 101.81L66.5003 89.2595L70.7807 87.5301L78.4108 97.6224L78.4829 97.5932L76.6482 85.1595L80.9286 83.4301L82.9498 102.418Z" fill="#A54E34"/>
<path d="M90.1639 99.5033L83.2852 82.4779L87.4213 80.8068L94.3 97.8322L90.1639 99.5033Z" fill="#A54E34"/>
<path d="M100.238 79.7125L105.698 93.2269L101.586 94.8883L96.126 81.3739L91.3166 83.317L89.8981 79.8061L103.629 74.2585L105.048 77.7694L100.238 79.7125Z" fill="#A54E34"/>
<path d="M123.734 85.9402L120.858 78.8223L114.221 81.5038L117.097 88.6217L112.985 90.2831L106.106 73.2578L110.218 71.5964L112.822 78.041L119.459 75.3595L116.855 68.9149L120.967 67.2535L127.846 84.2788L123.734 85.9402Z" fill="#A54E34"/>
<path d="M88.1091 114.599C88.5107 115.593 88.6648 116.505 88.5713 117.336C88.4779 118.166 88.2028 118.916 87.7459 119.585C87.2891 120.255 86.6908 120.851 85.9509 121.374C85.211 121.896 84.4002 122.336 83.5185 122.692L81.4745 123.518L84.0686 129.938L79.9565 131.6L73.0779 114.574L79.3301 112.048C80.2599 111.673 81.1669 111.413 82.0509 111.271C82.935 111.128 83.7602 111.14 84.5265 111.305C85.2929 111.471 85.9828 111.817 86.5963 112.343C87.2097 112.869 87.714 113.621 88.1091 114.599ZM84.0068 116.285C83.8449 115.884 83.6319 115.588 83.368 115.396C83.104 115.204 82.8067 115.091 82.4758 115.057C82.145 115.023 81.7975 115.051 81.4334 115.143C81.0693 115.234 80.7029 115.354 80.3342 115.503L78.5307 116.232L80.1532 120.247L81.8846 119.548C82.2693 119.392 82.6251 119.211 82.9519 119.005C83.2786 118.798 83.5499 118.558 83.7657 118.284C83.9815 118.011 84.1161 117.709 84.1695 117.38C84.223 117.051 84.1687 116.686 84.0068 116.285Z" fill="#A54E34"/>
<path d="M95.9478 125.139L89.0692 108.114L93.2052 106.442L100.084 123.468L95.9478 125.139Z" fill="#A54E34"/>
<path d="M118.225 113.397C117.821 114.567 117.169 115.628 116.266 116.58C115.364 117.532 114.192 118.299 112.749 118.882C111.434 119.413 110.133 119.688 108.843 119.705C107.554 119.722 106.341 119.499 105.203 119.036C104.064 118.573 103.039 117.882 102.128 116.964C101.216 116.045 100.491 114.921 99.9534 113.59C99.4028 112.228 99.1405 110.898 99.1665 109.6C99.1925 108.303 99.4653 107.097 99.9848 105.983C100.504 104.869 101.241 103.876 102.195 103.006C103.149 102.136 104.275 101.439 105.573 100.914C106.776 100.428 108.044 100.163 109.378 100.118C110.712 100.073 111.904 100.314 112.956 100.84L111.294 104.757C110.695 104.383 110.031 104.194 109.303 104.19C108.574 104.187 107.881 104.317 107.223 104.583C106.502 104.874 105.894 105.274 105.4 105.781C104.906 106.289 104.536 106.862 104.291 107.502C104.046 108.142 103.931 108.827 103.946 109.557C103.962 110.288 104.122 111.03 104.426 111.783C104.737 112.553 105.142 113.209 105.642 113.754C106.141 114.298 106.696 114.712 107.305 114.998C107.915 115.283 108.568 115.434 109.265 115.451C109.961 115.468 110.662 115.334 111.368 115.049C112.185 114.718 112.834 114.27 113.314 113.703C113.793 113.136 114.114 112.522 114.275 111.86L118.225 113.397Z" fill="#A54E34"/>
<path d="M125.436 98.5671C124.902 98.2608 124.297 98.0903 123.621 98.0557C122.945 98.0211 122.343 98.1107 121.814 98.3244C121.541 98.4346 121.274 98.5703 121.013 98.7318C120.752 98.8932 120.537 99.0874 120.368 99.3144C120.198 99.5413 120.081 99.7938 120.016 100.072C119.951 100.35 119.987 100.657 120.123 100.994C120.24 101.282 120.397 101.498 120.595 101.642C120.793 101.786 121.037 101.883 121.328 101.933C121.619 101.984 121.949 102.004 122.318 101.995C122.687 101.986 123.098 101.964 123.551 101.931C124.205 101.89 124.892 101.859 125.612 101.839C126.331 101.819 127.024 101.898 127.693 102.075C128.361 102.253 128.979 102.558 129.545 102.991C130.112 103.424 130.567 104.065 130.91 104.915C131.305 105.893 131.467 106.812 131.394 107.671C131.322 108.53 131.075 109.315 130.654 110.026C130.232 110.737 129.674 111.363 128.979 111.905C128.284 112.447 127.52 112.886 126.686 113.223C125.468 113.715 124.204 113.979 122.894 114.014C121.584 114.049 120.394 113.826 119.323 113.345L120.909 109.515C121.533 109.86 122.255 110.067 123.076 110.136C123.896 110.206 124.643 110.105 125.317 109.833C125.621 109.709 125.905 109.558 126.167 109.377C126.43 109.196 126.64 108.99 126.799 108.758C126.957 108.526 127.051 108.264 127.082 107.972C127.114 107.68 127.061 107.365 126.925 107.029C126.796 106.708 126.605 106.468 126.354 106.308C126.103 106.149 125.792 106.037 125.421 105.972C125.05 105.907 124.613 105.888 124.111 105.914C123.609 105.94 123.041 105.978 122.409 106.028C121.793 106.072 121.175 106.079 120.557 106.049C119.939 106.019 119.349 105.898 118.788 105.687C118.227 105.475 117.714 105.151 117.249 104.714C116.783 104.278 116.395 103.675 116.084 102.905C115.702 101.959 115.567 101.072 115.68 100.243C115.793 99.4145 116.074 98.6574 116.524 97.9719C116.975 97.2865 117.552 96.6849 118.257 96.1671C118.961 95.6493 119.715 95.2285 120.516 94.9047C121.478 94.516 122.531 94.2957 123.676 94.2435C124.82 94.1914 125.908 94.3578 126.94 94.7427L125.436 98.5671Z" fill="#A54E34"/>
</g>
</g>
<g clip-path="url(#clip4_2012_2)">
<g clip-path="url(#clip5_2012_2)">
<path d="M10.5978 500.724C1.22044 496.108 -2.66076 484.721 1.92885 475.29L47.0082 382.659C51.5978 373.228 62.9202 369.324 72.2973 373.94L164.402 419.277C173.779 423.893 177.66 435.28 173.072 444.711L127.992 537.342C123.402 546.773 112.08 550.676 102.703 546.061L10.5978 500.724Z" fill="#DBEAE5"/>
<path d="M61.549 448.007C61.0317 447.673 60.4364 447.471 59.7632 447.401C59.0899 447.331 58.4835 447.389 57.944 447.575C57.6661 447.67 57.3925 447.792 57.1233 447.939C56.8541 448.087 56.629 448.27 56.448 448.487C56.2669 448.705 56.1368 448.951 56.0575 449.225C55.9781 449.5 55.9976 449.808 56.1158 450.152C56.2171 450.446 56.3629 450.67 56.553 450.824C56.7432 450.978 56.9821 451.088 57.2699 451.153C57.5576 451.219 57.886 451.256 58.2552 451.266C58.6244 451.277 59.0359 451.277 59.4896 451.267C60.1457 451.26 60.8334 451.266 61.5526 451.283C62.2718 451.301 62.9605 451.416 63.6188 451.628C64.277 451.84 64.8777 452.177 65.4209 452.639C65.964 453.102 66.3848 453.766 66.6831 454.632C67.0265 455.63 67.1395 456.555 67.0222 457.409C66.9048 458.264 66.6172 459.035 66.1592 459.723C65.7012 460.411 65.1111 461.007 64.3888 461.512C63.6665 462.016 62.8803 462.415 62.0302 462.708C60.7877 463.136 59.5115 463.333 58.2016 463.299C56.8917 463.266 55.7147 462.981 54.6705 462.444L56.4544 458.703C57.0596 459.08 57.7701 459.324 58.5859 459.436C59.4018 459.549 60.153 459.487 60.8396 459.25C61.1503 459.143 61.4415 459.006 61.7132 458.84C61.985 458.673 62.2059 458.478 62.3759 458.255C62.5459 458.032 62.6541 457.775 62.7005 457.485C62.7468 457.195 62.7109 456.878 62.5927 456.534C62.4801 456.207 62.3027 455.958 62.0604 455.785C61.8181 455.613 61.5133 455.484 61.1462 455.4C60.779 455.317 60.3439 455.274 59.8408 455.274C59.3377 455.273 58.7692 455.282 58.135 455.299C57.5173 455.31 56.9005 455.285 56.2847 455.223C55.669 455.161 55.0865 455.009 54.5374 454.768C53.9882 454.528 53.4926 454.177 53.0506 453.717C52.6087 453.256 52.2526 452.634 51.9824 451.849C51.6502 450.885 51.5621 449.991 51.7181 449.17C51.874 448.348 52.1948 447.607 52.6804 446.946C53.166 446.285 53.7741 445.714 54.5048 445.234C55.2355 444.754 56.0096 444.373 56.827 444.092C57.8079 443.754 58.8712 443.589 60.0168 443.597C61.1624 443.605 62.2404 443.828 63.2509 444.266L61.549 448.007Z" fill="#384C75"/>
<path d="M74.2741 442.583L79.0195 456.364L74.8262 457.808L70.0807 444.026L65.1762 445.715L63.9434 442.135L77.9458 437.313L79.1786 440.894L74.2741 442.583Z" fill="#384C75"/>
<path d="M96.7494 450.259L94.2269 447.315L87.5077 449.629L87.4063 453.477L82.8451 455.047L84.15 435.177L88.2208 433.776L101.409 448.655L96.7494 450.259ZM87.7077 439.137L87.5525 445.855L91.9176 444.352L87.7077 439.137Z" fill="#384C75"/>
<path d="M107.9 438.191L110.433 445.548L106.24 446.992L103.707 439.635L93.7386 431.876L98.8147 430.128L104.73 435.278L106.221 427.578L111.125 425.889L107.9 438.191Z" fill="#384C75"/>
<path d="M51.4169 478.925C50.8996 478.591 50.3043 478.389 49.6311 478.32C48.9578 478.25 48.3515 478.308 47.812 478.493C47.534 478.589 47.2605 478.711 46.9913 478.858C46.7221 479.006 46.4969 479.188 46.3159 479.406C46.1349 479.624 46.0047 479.87 45.9254 480.144C45.8461 480.418 45.8655 480.727 45.9837 481.07C46.0851 481.365 46.2308 481.589 46.421 481.743C46.6111 481.897 46.8501 482.006 47.1378 482.072C47.4255 482.137 47.754 482.175 48.1231 482.185C48.4923 482.195 48.9038 482.195 49.3575 482.185C50.0136 482.179 50.7013 482.184 51.4205 482.202C52.1397 482.219 52.8284 482.334 53.4867 482.547C54.1449 482.759 54.7456 483.096 55.2888 483.558C55.8319 484.02 56.2527 484.685 56.551 485.551C56.8944 486.548 57.0074 487.474 56.8901 488.328C56.7728 489.182 56.4851 489.953 56.0271 490.641C55.5691 491.329 54.979 491.926 54.2567 492.431C53.5345 492.935 52.7483 493.334 51.8982 493.627C50.6557 494.054 49.3795 494.252 48.0696 494.218C46.7597 494.184 45.5826 493.899 44.5384 493.363L46.3223 489.622C46.9275 489.998 47.638 490.243 48.4539 490.355C49.2697 490.467 50.0209 490.405 50.7076 490.169C51.0182 490.062 51.3094 489.925 51.5811 489.758C51.8529 489.592 52.0738 489.397 52.2438 489.174C52.4139 488.951 52.5221 488.694 52.5684 488.404C52.6148 488.113 52.5788 487.797 52.4606 487.453C52.348 487.126 52.1706 486.876 51.9283 486.704C51.686 486.531 51.3813 486.403 51.0141 486.319C50.6469 486.235 50.2118 486.193 49.7087 486.193C49.2057 486.192 48.6371 486.2 48.003 486.218C47.3852 486.229 46.7684 486.204 46.1527 486.142C45.5369 486.079 44.9545 485.928 44.4053 485.687C43.8561 485.447 43.3605 485.096 42.9186 484.636C42.4766 484.175 42.1205 483.553 41.8503 482.768C41.5182 481.803 41.4301 480.91 41.586 480.088C41.7419 479.267 42.0627 478.525 42.5483 477.864C43.0339 477.204 43.6421 476.633 44.3728 476.153C45.1035 475.673 45.8775 475.292 46.695 475.01C47.6759 474.673 48.7391 474.508 49.8847 474.515C51.0304 474.523 52.1084 474.746 53.1188 475.185L51.4169 478.925Z" fill="#384C75"/>
<path d="M61.7759 489.732L55.7977 472.37L67.4705 468.35L68.6948 471.906L61.0683 474.532L62.1913 477.794L69.4009 475.311L70.5577 478.671L63.3481 481.153L64.5893 484.758L72.6573 481.98L73.8901 485.561L61.7759 489.732Z" fill="#384C75"/>
<path d="M91.7243 476.732C91.2599 477.879 90.5523 478.904 89.6016 479.808C88.6509 480.711 87.4398 481.416 85.9685 481.923C84.6279 482.384 83.3135 482.59 82.0253 482.54C80.7371 482.49 79.5368 482.204 78.4244 481.681C77.312 481.159 76.3245 480.416 75.462 479.451C74.5995 478.486 73.9346 477.325 73.4674 475.968C72.9889 474.579 72.7966 473.237 72.8905 471.943C72.9843 470.649 73.3198 469.459 73.8969 468.373C74.474 467.288 75.2616 466.335 76.2596 465.516C77.2576 464.697 78.4187 464.06 79.743 463.604C80.9691 463.181 82.2494 462.983 83.5838 463.008C84.9182 463.033 86.0968 463.336 87.1196 463.916L85.2545 467.74C84.6763 467.336 84.0235 467.113 83.2958 467.071C82.5681 467.029 81.8692 467.123 81.1989 467.354C80.4632 467.607 79.8353 467.974 79.3151 468.455C78.7949 468.936 78.3958 469.489 78.1176 470.116C77.8394 470.742 77.6889 471.42 77.666 472.15C77.6432 472.88 77.764 473.629 78.0286 474.398C78.2988 475.183 78.6691 475.86 79.1395 476.429C79.6099 476.999 80.1419 477.442 80.7356 477.759C81.3292 478.075 81.9736 478.26 82.6685 478.314C83.3635 478.367 84.0706 478.27 84.7899 478.022C85.6237 477.735 86.2949 477.321 86.8036 476.78C87.3122 476.239 87.6645 475.642 87.8604 474.99L91.7243 476.732Z" fill="#384C75"/>
<path d="M107.414 466.693C107.774 467.74 107.926 468.753 107.871 469.732C107.815 470.711 107.565 471.62 107.122 472.458C106.679 473.296 106.055 474.046 105.25 474.708C104.444 475.369 103.478 475.894 102.35 476.282C101.205 476.676 100.116 476.859 99.0824 476.831C98.0487 476.803 97.1075 476.592 96.2588 476.199C95.4101 475.805 94.6664 475.238 94.0275 474.498C93.3887 473.758 92.8891 472.865 92.5288 471.819L88.8051 461.004L92.974 459.569L96.5795 470.04C96.7427 470.514 96.9588 470.943 97.2278 471.326C97.4968 471.708 97.8156 472.024 98.1844 472.272C98.5532 472.519 98.9799 472.67 99.4643 472.722C99.9487 472.775 100.485 472.7 101.074 472.497C101.662 472.295 102.131 472.024 102.481 471.684C102.83 471.344 103.078 470.962 103.224 470.536C103.37 470.111 103.427 469.666 103.395 469.202C103.363 468.737 103.266 468.268 103.102 467.794L99.497 457.323L103.69 455.879L107.414 466.693Z" fill="#384C75"/>
<path d="M122.96 468.664L116.835 463.065L115.413 463.555L117.785 470.446L113.666 471.865L107.687 454.503L114.308 452.223C115.142 451.936 115.985 451.741 116.837 451.64C117.689 451.539 118.5 451.584 119.27 451.776C120.04 451.968 120.729 452.334 121.336 452.875C121.943 453.416 122.418 454.185 122.761 455.182C123.166 456.359 123.188 457.458 122.826 458.479C122.465 459.5 121.779 460.376 120.769 461.107L127.864 466.976L122.96 468.664ZM118.642 456.683C118.501 456.274 118.301 455.973 118.043 455.778C117.784 455.584 117.495 455.464 117.178 455.418C116.86 455.372 116.525 455.382 116.173 455.448C115.821 455.515 115.49 455.601 115.179 455.708L112.948 456.477L114.341 460.523L116.327 459.839C116.671 459.721 117.012 459.571 117.352 459.39C117.692 459.209 117.984 458.994 118.228 458.746C118.471 458.497 118.639 458.202 118.732 457.859C118.824 457.516 118.794 457.124 118.642 456.683Z" fill="#384C75"/>
<path d="M130.537 466.055L124.559 448.693L136.232 444.674L137.456 448.23L129.83 450.856L130.953 454.117L138.162 451.635L139.319 454.994L132.109 457.477L133.351 461.082L141.419 458.304L142.651 461.884L130.537 466.055Z" fill="#384C75"/>
</g>
</g>
<g clip-path="url(#clip6_2012_2)">
<g clip-path="url(#clip7_2012_2)">
<path d="M180.704 264.846C219.55 264.846 251.041 233.342 251.041 194.479C251.041 155.616 219.55 124.112 180.704 124.112C141.859 124.112 110.368 155.616 110.368 194.479C110.368 233.342 141.859 264.846 180.704 264.846Z" fill="#DBEAE5"/>
<path d="M192.109 146.475C192.895 145.27 194.509 144.93 195.715 145.716C196.921 146.502 197.261 148.115 196.476 149.321C195.69 150.526 194.076 150.867 192.87 150.08C191.665 149.294 191.323 147.68 192.109 146.475Z" fill="#384C75"/>
<path d="M152.29 233.461C153.076 232.256 154.689 231.916 155.896 232.702C157.101 233.488 157.442 235.101 156.657 236.307C155.871 237.512 154.256 237.853 153.051 237.066C151.845 236.28 151.504 234.666 152.29 233.461Z" fill="#384C75"/>
<path d="M134.107 170.87C134.893 169.664 136.507 169.325 137.713 170.11C138.918 170.896 139.259 172.51 138.474 173.715C137.688 174.921 136.074 175.261 134.868 174.475C133.662 173.689 133.321 172.075 134.107 170.87Z" fill="#384C75"/>
<path d="M168.071 149.083C167.955 148.263 168.009 147.55 168.234 146.944C168.459 146.339 168.804 145.827 169.271 145.41C169.738 144.992 170.298 144.656 170.95 144.401C171.601 144.146 172.291 143.966 173.018 143.862L174.703 143.621L173.955 138.324L177.346 137.839L179.33 151.887L174.175 152.624C173.408 152.733 172.68 152.76 171.991 152.703C171.302 152.646 170.686 152.485 170.142 152.218C169.599 151.952 169.146 151.564 168.784 151.056C168.423 150.548 168.185 149.89 168.071 149.083ZM171.459 148.579C171.506 148.909 171.61 149.171 171.772 149.364C171.934 149.557 172.136 149.696 172.377 149.783C172.619 149.87 172.885 149.913 173.175 149.912C173.464 149.912 173.761 149.889 174.065 149.846L175.553 149.633L175.085 146.32L173.657 146.524C173.34 146.569 173.039 146.639 172.756 146.734C172.473 146.828 172.225 146.958 172.012 147.123C171.799 147.289 171.642 147.49 171.541 147.727C171.439 147.964 171.412 148.248 171.459 148.579Z" fill="#384C75"/>
<path d="M152.575 153.699C152.028 152.585 151.762 151.521 151.778 150.508C151.795 149.495 152.013 148.561 152.434 147.706C152.855 146.851 153.431 146.091 154.161 145.426C154.892 144.761 155.694 144.213 156.569 143.782L161.315 141.443L167.564 154.171L162.962 156.439C162.063 156.882 161.125 157.214 160.147 157.436C159.17 157.657 158.22 157.694 157.299 157.545C156.377 157.396 155.507 157.018 154.687 156.409C153.867 155.801 153.163 154.898 152.575 153.699ZM155.775 152.122C156.128 152.841 156.537 153.38 157.003 153.738C157.47 154.096 157.966 154.32 158.494 154.41C159.022 154.5 159.564 154.482 160.12 154.357C160.676 154.231 161.218 154.039 161.745 153.779L163.273 153.026L159.619 145.583L158.163 146.301C157.612 146.572 157.112 146.897 156.665 147.273C156.217 147.65 155.869 148.079 155.621 148.558C155.373 149.038 155.25 149.575 155.251 150.17C155.253 150.764 155.427 151.415 155.775 152.122Z" fill="#384C75"/>
<path d="M150.265 161.63L148.238 159.524L144.284 163.336L142.326 161.302L146.281 157.49L142.463 153.523L144.902 151.171L154.731 161.384L148.006 167.868L145.979 165.762L150.265 161.63Z" fill="#384C75"/>
<path d="M125.652 193.454L125.754 190.028L140.086 185.062L139.972 188.908L129.825 191.908L129.823 191.989L139.774 195.54L139.661 199.326L125.652 193.454Z" fill="#384C75"/>
<path d="M138.366 211.687C137.564 211.891 136.85 211.914 136.225 211.755C135.599 211.597 135.055 211.308 134.591 210.888C134.127 210.469 133.734 209.948 133.412 209.327C133.09 208.706 132.84 208.039 132.66 207.327L132.244 205.676L127.059 206.992L126.222 203.67L139.97 200.18L141.243 205.231C141.432 205.982 141.535 206.704 141.551 207.396C141.567 208.088 141.471 208.718 141.264 209.288C141.056 209.857 140.719 210.349 140.251 210.764C139.784 211.179 139.156 211.487 138.366 211.687ZM137.51 208.37C137.833 208.288 138.082 208.156 138.257 207.974C138.431 207.792 138.549 207.576 138.61 207.326C138.671 207.076 138.686 206.807 138.654 206.519C138.623 206.23 138.57 205.937 138.495 205.639L138.127 204.182L134.885 205.006L135.237 206.404C135.316 206.715 135.417 207.006 135.54 207.278C135.664 207.55 135.819 207.783 136.005 207.977C136.192 208.17 136.408 208.305 136.655 208.38C136.901 208.456 137.186 208.452 137.51 208.37Z" fill="#384C75"/>
<path d="M136.281 226.869L141.093 217.088L141.061 217.037L133.254 222.055L131.485 219.24L143.488 211.671L145.567 214.977L140.761 224.731L140.793 224.782L148.583 219.775L150.352 222.589L138.348 230.158L136.281 226.869Z" fill="#384C75"/>
<path d="M174.724 249.04L174.141 246.102L168.743 245.123L167.219 247.678L163.554 247.013L171.954 234.112L175.224 234.706L178.467 249.719L174.724 249.04ZM172.849 238.126L170.202 242.596L173.708 243.232L172.849 238.126Z" fill="#384C75"/>
<path d="M195.51 240.842C195.668 242.075 195.576 243.168 195.234 244.122C194.892 245.075 194.384 245.889 193.709 246.563C193.035 247.236 192.245 247.77 191.34 248.164C190.435 248.558 189.499 248.817 188.532 248.943L183.288 249.625L181.482 235.553L186.567 234.892C187.56 234.763 188.555 234.751 189.551 234.857C190.548 234.964 191.458 235.236 192.282 235.675C193.105 236.113 193.807 236.753 194.386 237.594C194.965 238.434 195.339 239.517 195.51 240.842ZM191.974 241.302C191.872 240.507 191.658 239.865 191.333 239.375C191.007 238.885 190.609 238.512 190.139 238.257C189.669 238.001 189.15 237.843 188.584 237.782C188.017 237.721 187.443 237.728 186.86 237.804L185.172 238.023L186.228 246.252L187.837 246.043C188.446 245.964 189.023 245.818 189.568 245.606C190.113 245.393 190.58 245.1 190.97 244.726C191.359 244.352 191.649 243.884 191.839 243.32C192.029 242.756 192.074 242.084 191.974 241.302Z" fill="#384C75"/>
<path d="M216.489 232.173C216.93 232.809 217.175 233.432 217.223 234.041C217.271 234.65 217.178 235.231 216.943 235.784C216.709 236.337 216.366 236.856 215.913 237.341C215.461 237.826 214.955 238.263 214.395 238.652L209.754 241.879L201.677 230.228L206.318 227.001C206.768 226.689 207.261 226.415 207.797 226.18C208.334 225.945 208.872 225.807 209.412 225.765C209.952 225.723 210.476 225.81 210.983 226.026C211.491 226.242 211.95 226.647 212.361 227.239C212.81 227.886 213.005 228.543 212.947 229.21C212.888 229.876 212.639 230.501 212.197 231.084L212.22 231.117C212.587 230.943 212.968 230.829 213.361 230.775C213.755 230.721 214.138 230.735 214.512 230.816C214.885 230.898 215.242 231.049 215.581 231.268C215.92 231.487 216.223 231.789 216.489 232.173ZM209.908 229.505C209.634 229.11 209.283 228.927 208.856 228.956C208.429 228.985 207.919 229.205 207.326 229.617L205.944 230.578L207.61 232.981L209.124 231.928C209.65 231.562 209.985 231.171 210.127 230.755C210.27 230.339 210.197 229.922 209.908 229.505ZM213.492 233.866C213.157 233.384 212.744 233.175 212.253 233.24C211.762 233.305 211.214 233.548 210.611 233.967L209.047 235.054L210.895 237.72L212.475 236.622C212.695 236.469 212.909 236.292 213.118 236.089C213.328 235.887 213.494 235.67 213.618 235.437C213.741 235.205 213.801 234.956 213.796 234.692C213.791 234.427 213.69 234.152 213.492 233.866Z" fill="#384C75"/>
<path d="M222.869 231.153L211.84 222.251L214.005 219.567L222.713 226.595L226.161 222.319L228.482 224.192L222.869 231.153Z" fill="#384C75"/>
<path d="M229.436 203.59C230.478 204.005 231.358 204.563 232.076 205.266C232.795 205.969 233.334 206.762 233.693 207.646C234.052 208.53 234.223 209.479 234.207 210.494C234.191 211.509 233.977 212.531 233.567 213.562C233.156 214.593 232.609 215.479 231.926 216.222C231.242 216.964 230.466 217.533 229.598 217.928C228.729 218.324 227.792 218.53 226.787 218.547C225.782 218.565 224.758 218.366 223.717 217.952C222.662 217.533 221.782 216.974 221.076 216.276C220.37 215.578 219.847 214.791 219.506 213.915C219.166 213.039 219.009 212.099 219.035 211.095C219.061 210.091 219.28 209.074 219.69 208.043C220.101 207.012 220.643 206.12 221.316 205.367C221.99 204.613 222.751 204.035 223.601 203.633C224.451 203.23 225.373 203.017 226.366 202.995C227.359 202.973 228.382 203.171 229.436 203.59ZM228.079 206.999C227.508 206.772 226.938 206.653 226.368 206.642C225.797 206.631 225.27 206.72 224.786 206.909C224.301 207.097 223.864 207.384 223.474 207.768C223.084 208.152 222.777 208.624 222.555 209.183C222.332 209.741 222.232 210.291 222.253 210.832C222.275 211.373 222.396 211.881 222.616 212.357C222.836 212.833 223.158 213.26 223.582 213.637C224.006 214.014 224.504 214.316 225.074 214.543C225.669 214.78 226.255 214.905 226.832 214.919C227.408 214.932 227.942 214.846 228.432 214.66C228.923 214.474 229.362 214.192 229.75 213.813C230.137 213.435 230.442 212.967 230.665 212.408C230.888 211.849 230.988 211.299 230.966 210.759C230.945 210.218 230.821 209.708 230.595 209.23C230.369 208.751 230.042 208.319 229.614 207.933C229.186 207.547 228.674 207.236 228.079 206.999Z" fill="#384C75"/>
<path d="M235.214 187.823C235.917 188.47 236.465 189.26 236.859 190.194C237.253 191.127 237.433 192.194 237.398 193.396C237.367 194.492 237.157 195.498 236.77 196.417C236.384 197.335 235.85 198.126 235.17 198.789C234.49 199.453 233.684 199.965 232.752 200.327C231.82 200.69 230.8 200.856 229.692 200.825C228.558 200.794 227.536 200.569 226.627 200.15C225.717 199.731 224.949 199.165 224.321 198.453C223.694 197.741 223.22 196.912 222.9 195.968C222.58 195.024 222.435 194.01 222.466 192.928C222.495 191.927 222.7 190.946 223.082 189.988C223.463 189.029 224.003 188.258 224.7 187.676L226.956 190.063C226.506 190.372 226.167 190.784 225.939 191.299C225.71 191.814 225.588 192.345 225.573 192.893C225.555 193.494 225.65 194.048 225.855 194.555C226.061 195.062 226.353 195.501 226.729 195.872C227.106 196.243 227.555 196.536 228.076 196.751C228.598 196.966 229.172 197.082 229.799 197.099C230.44 197.116 231.03 197.032 231.569 196.846C232.109 196.661 232.574 196.396 232.965 196.052C233.355 195.709 233.664 195.293 233.892 194.804C234.12 194.316 234.242 193.778 234.259 193.19C234.278 192.509 234.162 191.911 233.909 191.396C233.657 190.881 233.322 190.465 232.904 190.146L235.214 187.823Z" fill="#384C75"/>
<path d="M233.735 174.503L228.947 181.403L228.958 181.442L235.224 179.599L236.168 182.83L222.559 186.831L221.615 183.6L227.151 181.973L227.134 181.915L220.177 178.678L218.974 174.563L226.954 178.585L232.482 170.215L233.735 174.503Z" fill="#384C75"/>
<path d="M230.039 166.082L218.148 173.828L212.956 165.835L215.391 164.248L218.784 169.471L221.018 168.016L217.811 163.078L220.111 161.58L223.318 166.517L225.787 164.908L222.199 159.383L224.651 157.786L230.039 166.082Z" fill="#384C75"/>
<path d="M214.583 148.74L213.326 155.03L214.218 155.774L217.825 151.446L220.407 153.601L211.317 164.505L207.168 161.041C206.645 160.605 206.18 160.126 205.773 159.603C205.366 159.081 205.072 158.526 204.892 157.94C204.711 157.355 204.679 156.753 204.794 156.135C204.909 155.517 205.228 154.896 205.75 154.269C206.366 153.53 207.084 153.076 207.903 152.906C208.722 152.737 209.575 152.839 210.462 153.214L211.509 146.174L214.583 148.74ZM208.386 156.391C208.172 156.648 208.053 156.9 208.028 157.149C208.002 157.398 208.038 157.637 208.134 157.865C208.231 158.094 208.371 158.311 208.555 158.517C208.74 158.723 208.929 158.907 209.124 159.07L210.523 160.237L212.641 157.696L211.396 156.657C211.181 156.478 210.946 156.312 210.69 156.16C210.435 156.007 210.176 155.9 209.915 155.839C209.654 155.777 209.391 155.785 209.128 155.861C208.864 155.937 208.617 156.114 208.386 156.391Z" fill="#384C75"/>
</g>
</g>
<g clip-path="url(#clip8_2012_2)">
<g clip-path="url(#clip9_2012_2)">
<path d="M34 189C50.0163 189 63 176.016 63 160C63 143.984 50.0163 131 34 131C17.9837 131 5 143.984 5 160C5 176.016 17.9837 189 34 189Z" fill="#DF96AE"/>
<path fill-rule="evenodd" clip-rule="evenodd" d="M30.93 143.775C31.2292 143.611 32.354 143.213 32.6854 143.845C33.0171 144.477 32.0743 145.215 31.7531 145.392C31.4324 145.567 30.9085 145.552 30.6097 144.982C30.3106 144.412 30.6307 143.94 30.93 143.775ZM34.2916 149.994C34.5909 149.83 35.7155 149.431 36.0472 150.063C36.3786 150.696 35.4359 151.433 35.1148 151.61C34.7939 151.785 34.2701 151.771 33.9711 151.201C33.6722 150.63 33.9921 150.158 34.2916 149.994ZM34.0485 174.5C32.0931 174.507 30.1924 174.122 28.3997 173.359C26.6695 172.619 25.1161 171.562 23.7821 170.213C22.4464 168.863 21.3958 167.288 20.66 165.533C19.8973 163.715 19.5068 161.783 19.5001 159.792C19.4938 157.801 19.8717 155.867 20.6223 154.042C21.3478 152.282 22.387 150.699 23.7139 149.342C25.0394 147.984 26.586 146.915 28.3107 146.165C28.7575 145.972 29.2287 145.872 29.7113 145.87C31.1603 145.865 32.4657 146.739 33.0355 148.096C33.8152 149.954 32.9629 152.112 31.1381 152.905C30.2714 153.282 29.4918 153.82 28.8221 154.506C28.1522 155.194 27.628 155.99 27.2637 156.874C26.887 157.79 26.699 158.763 26.7022 159.767C26.7055 160.772 26.8998 161.744 27.2828 162.656C27.6525 163.539 28.182 164.331 28.8564 165.013C29.5293 165.695 30.3124 166.228 31.1828 166.599C32.0817 166.983 33.0377 167.173 34.0244 167.17C35.0116 167.166 35.9665 166.969 36.8635 166.58C37.7306 166.203 38.5096 165.664 39.1788 164.978C39.8472 164.292 40.3722 163.496 40.7369 162.61C41.1139 161.694 41.3032 160.721 41.2997 159.717C41.2931 157.697 42.9025 156.048 44.8878 156.041C46.8727 156.034 48.4932 157.673 48.4999 159.693C48.5064 161.684 48.1292 163.619 47.3773 165.442C46.654 167.202 45.6138 168.784 44.2875 170.143C42.9618 171.501 41.4143 172.568 39.6901 173.319C37.9023 174.096 36.0039 174.493 34.0485 174.5ZM34.4996 147.224C34.8337 147.041 36.2092 146.53 36.5793 147.235C36.9493 147.941 35.7768 148.83 35.4186 149.027C35.0602 149.223 34.4761 149.207 34.1423 148.571C33.8087 147.934 34.1658 147.407 34.4996 147.224ZM33.2156 144.896C33.5495 144.713 34.8923 144.22 35.2622 144.925C35.6322 145.63 34.4924 146.502 34.1343 146.698C33.7762 146.895 33.1918 146.879 32.858 146.242C32.5245 145.606 32.8817 145.079 33.2156 144.896Z" fill="#844461"/>
</g>
</g>
<defs>
<clipPath id="clip0_2012_2">
<rect width="226.93" height="113.97" fill="white" transform="translate(1.03 292.51)"/>
</clipPath>
<clipPath id="clip1_2012_2">
<rect width="226.93" height="113.969" fill="white" transform="translate(1.03 292.51)"/>
</clipPath>
<clipPath id="clip2_2012_2">
<rect width="173" height="173" fill="white" transform="translate(6)"/>
</clipPath>
<clipPath id="clip3_2012_2">
<rect width="173" height="173" fill="white" transform="translate(6)"/>
</clipPath>
<clipPath id="clip4_2012_2">
<rect width="175" height="176" fill="white" transform="translate(0 372)"/>
</clipPath>
<clipPath id="clip5_2012_2">
<rect width="175" height="176" fill="white" transform="translate(0 372)"/>
</clipPath>
<clipPath id="clip6_2012_2">
<rect width="141.71" height="141.71" fill="white" transform="translate(109.64 123.64)"/>
</clipPath>
<clipPath id="clip7_2012_2">
<rect width="141.71" height="141.71" fill="white" transform="translate(109.64 123.64)"/>
</clipPath>
<clipPath id="clip8_2012_2">
<rect width="58" height="58" fill="white" transform="translate(5 131)"/>
</clipPath>
<clipPath id="clip9_2012_2">
<rect width="58" height="58" fill="white" transform="translate(5 131)"/>
</clipPath>
</defs>
</svg>
